<svg xmlns="http://www.w3.org/2000/svg" width="22" height="32" viewBox="0 0 22 32">
  <g fill="none" fill-rule="evenodd" transform="translate(-1363 -646)">
    <rect width="1440" height="18640" fill="none"/>
    <g transform="translate(1358 646)">
      <path fill="#2039EC" fill-rule="nonzero" d="M5,22.7137255 C5,21.3960784 5.2867784,20.3712418 5.8603352,19.6392157 C6.33147114,18.9908497 7.08938547,18.5202614 8.13407821,18.227451 C7.80633147,17.3908497 7.6424581,16.7738562 7.6424581,16.3764706 C7.6424581,15.6862745 8.0009311,14.9542484 8.71787709,14.1803922 C9.47579143,13.448366 10.1824953,13.0823529 10.8379888,13.0823529 C11.1862197,13.0823529 11.5959032,13.1764706 12.0670391,13.3647059 C11.0837989,10.4993464 10.377095,8.32418301 9.94692737,6.83921569 C9.45530726,5.14509804 9.20949721,3.94248366 9.20949721,3.23137255 C9.20949721,2.22745098 9.45530726,1.44313725 9.94692737,0.878431373 C10.4590317,0.292810458 11.1452514,0 12.0055866,0 C13.4804469,0 15.2523277,3.08496732 17.3212291,9.25490196 L17.8435754,10.7921569 C17.9664804,10.4784314 18.0893855,10.1333333 18.2122905,9.75686275 C20.2607076,3.6496732 22.1042831,0.596078431 23.7430168,0.596078431 C24.5623836,0.596078431 25.207635,0.878431373 25.6787709,1.44313725 C26.1703911,2.00784314 26.4162011,2.73986928 26.4162011,3.63921569 C26.4162011,4.2248366 26.1703911,5.40653595 25.6787709,7.18431373 C25.2486034,8.71111111 24.5726257,10.8026144 23.650838,13.4588235 C24.8184358,13.751634 25.6582868,14.3163399 26.1703911,15.1529412 C26.7234637,16.0522876 27,17.4431373 27,19.3254902 C27,23.048366 25.9143389,26.0915033 23.7430168,28.454902 C21.5307263,30.8183007 18.7243948,32 15.3240223,32 C13.972067,32 12.6713222,31.7490196 11.4217877,31.2470588 C10.2132216,30.8078431 9.11731844,30.1176471 8.13407821,29.1764706 C7.08938547,28.172549 6.31098696,27.1372549 5.79888268,26.0705882 C5.26629423,24.9411765 5,23.8222222 5,22.7137255 Z M6.9972067,22.5568627 C6.9972067,23.0797386 7.1405959,23.696732 7.4273743,24.4078431 C7.69366853,25.0771242 8.09310987,25.7777778 8.62569832,26.5098039 C9.46554935,27.6183007 10.4590317,28.4653595 11.6061453,29.0509804 C12.773743,29.6366013 14.0949721,29.9294118 15.5698324,29.9294118 C18.2122905,29.9294118 20.4348231,28.9150327 22.2374302,26.8862745 C24.0195531,24.8784314 24.9106145,22.3372549 24.9106145,19.2627451 C24.9106145,18.3006536 24.849162,17.5581699 24.726257,17.0352941 C24.6238361,16.5751634 24.4292365,16.2196078 24.1424581,15.9686275 C23.5893855,15.4875817 22.5037244,15.069281 20.8854749,14.7137255 C19.2672253,14.3372549 17.5465549,14.1490196 15.7234637,14.1490196 C15.2728119,14.1490196 14.9860335,14.2117647 14.8631285,14.3372549 C14.7197393,14.4 14.6480447,14.6091503 14.6480447,14.9647059 C14.6480447,15.8222222 15.1191806,16.4287582 16.0614525,16.7843137 C17.0856611,17.2235294 18.7756052,17.4431373 21.1312849,17.4431373 L21.9916201,17.4431373 C22.3193669,17.4431373 22.5549348,17.5581699 22.698324,17.7882353 C22.8621974,17.9555556 22.9748603,18.2797386 23.0363128,18.7607843 C22.6880819,19.1163399 22.1247672,19.4405229 21.3463687,19.7333333 C20.6089385,20.0052288 20.066108,20.2771242 19.7178771,20.5490196 C18.8985102,21.1555556 18.2430168,21.8771242 17.7513966,22.7137255 C17.2802607,23.5294118 17.0446927,24.303268 17.0446927,25.0352941 C17.0446927,25.4745098 17.1471136,26.0078431 17.3519553,26.6352941 C17.5772812,27.3254902 17.6899441,27.7751634 17.6899441,27.9843137 L17.6899441,28.172549 L17.5670391,28.6431373 C16.6657356,28.5803922 16.0102421,28.151634 15.6005587,27.3568627 C15.2523277,26.6875817 15.0577281,25.8300654 15.0167598,24.7843137 C14.9553073,24.8052288 14.8324022,24.8156863 14.6480447,24.8156863 L14.3100559,24.8156863 C14.33054,24.9202614 14.3407821,25.0457516 14.3407821,25.1921569 C14.3407821,25.8196078 14.1052142,26.3529412 13.6340782,26.7921569 C13.1629423,27.2313725 12.6098696,27.4509804 11.9748603,27.4509804 C11.0121043,27.4509804 10.0391061,26.9803922 9.05586592,26.0392157 C8.0726257,25.0771242 7.58100559,24.1359477 7.58100559,23.2156863 C7.58100559,23.048366 7.61173184,22.8810458 7.67318436,22.7137255 C7.69366853,22.5673203 7.8575419,22.3372549 8.16480447,22.0235294 C8.67690875,22.6718954 9.02513966,23.1215686 9.20949721,23.372549 C10.0698324,24.6065359 10.8482309,25.2235294 11.5446927,25.2235294 C11.7290503,25.2235294 11.9031657,25.1607843 12.0670391,25.0352941 C12.1899441,24.9098039 12.2513966,24.8052288 12.2513966,24.7215686 C12.2513966,24.5542484 12.1284916,24.2509804 11.8826816,23.8117647 C11.7188082,23.4980392 11.339851,22.9437908 10.7458101,22.1490196 C10.1722533,21.3960784 9.7113594,20.8732026 9.36312849,20.5803922 C9.05586592,20.2875817 8.83054004,20.1411765 8.68715084,20.1411765 C8.29795158,20.1411765 7.91899441,20.3712418 7.55027933,20.8313725 C7.18156425,21.2915033 6.9972067,21.8666667 6.9972067,22.5568627 Z M9.76256983,16.5647059 C9.76256983,16.8366013 9.9264432,17.3071895 10.2541899,17.9764706 C10.5409683,18.5411765 11.0018622,19.2522876 11.6368715,20.1098039 C12.2718808,20.9464052 12.8454376,21.5947712 13.3575419,22.054902 C13.849162,22.4732026 14.2178771,22.6823529 14.4636872,22.6823529 C14.6070764,22.6823529 14.7504655,22.6091503 14.8938547,22.4627451 C15.0372439,22.2954248 15.1089385,22.1281046 15.1089385,21.9607843 C15.1089385,21.7098039 14.924581,21.103268 14.5558659,20.1411765 C14.1256983,19.0745098 13.6545624,18.1124183 13.1424581,17.254902 C12.6918063,16.5228758 12.292365,16.0104575 11.9441341,15.7176471 C11.6163873,15.4039216 11.2988827,15.2470588 10.9916201,15.2470588 C10.7662942,15.2470588 10.5102421,15.4039216 10.2234637,15.7176471 C9.91620112,16.0313725 9.76256983,16.3137255 9.76256983,16.5647059 Z M11.1452514,3.01176471 C11.1452514,3.72287582 11.3910615,4.84183007 11.8826816,6.36862745 C12.3333333,7.85359477 13.009311,9.84052288 13.9106145,12.3294118 C14.1154562,12.2039216 14.4022346,12.1411765 14.7709497,12.1411765 C14.7914339,12.1411765 14.8580074,12.1464052 14.9706704,12.1568627 C15.0833333,12.1673203 15.1908752,12.172549 15.2932961,12.172549 C15.3752328,12.172549 15.641527,12.1934641 16.0921788,12.2352941 L13.972067,5.96078431 C13.3985102,4.2875817 12.9478585,3.2 12.6201117,2.69803922 C12.3538175,2.25882353 12.0875233,2.03921569 11.8212291,2.03921569 C11.6368715,2.03921569 11.4832402,2.12287582 11.3603352,2.29019608 C11.216946,2.47843137 11.1452514,2.71895425 11.1452514,3.01176471 Z M16.2458101,19.0117647 C16.4301676,19.4928105 16.6247672,20.0156863 16.8296089,20.5803922 C17.2392924,20.0993464 17.6489758,19.7019608 18.0586592,19.3882353 C17.9562384,19.3673203 17.8026071,19.3411765 17.5977654,19.3098039 C17.3929236,19.2784314 17.2392924,19.2522876 17.1368715,19.2313725 C16.7271881,19.1477124 16.4301676,19.0745098 16.2458101,19.0117647 Z M19.472067,12.6117647 L21.5307263,12.9882353 C22.452514,10.3947712 23.1592179,8.31372549 23.650838,6.74509804 C24.1629423,5.05098039 24.4189944,4.04705882 24.4189944,3.73333333 C24.4189944,3.39869281 24.3472998,3.1372549 24.2039106,2.94901961 C24.1219739,2.80261438 23.9683426,2.72941176 23.7430168,2.72941176 C23.4562384,2.72941176 23.1387337,3.01176471 22.7905028,3.57647059 C22.4013035,4.18300654 21.9608939,5.23921569 21.4692737,6.74509804 L19.472067,12.6117647 Z"/>
    </g>
  </g>
</svg>
