<svg width="17px" height="17px" viewBox="0 0 17 17" version="1.1" xmlns="http://www.w3.org/2000/svg" xmlns:xlink="http://www.w3.org/1999/xlink">
    <!-- Generator: sketchtool 51.2 (57519) - http://www.bohemiancoding.com/sketch -->
    <title>4EB40E42-12EF-4AE8-9E88-B462901ADD57</title>
    <desc>Created with sketchtool.</desc>
    <defs></defs>
    <g id="bundle" stroke="none" stroke-width="1" fill="none" fill-rule="evenodd">
        <g id="akropolis-mobile" transform="translate(-120.000000, -6591.000000)">
            <rect fill="#FFFFFF" x="0" y="0" width="375" height="12135"></rect>
            <rect id="Rectangle" fill="#F9F9F9" fill-rule="nonzero" x="0" y="5957" width="375" height="863"></rect>
            <g id="Team-Member-Copy-2" transform="translate(16.000000, 6430.000000)" fill-rule="nonzero">
                <rect id="Rectangle" x="0" y="0" width="163" height="342"></rect>
                <g id="Group" transform="translate(42.000000, 158.000000)">
                    <g id="linkedin-linkedin" transform="translate(62.000000, 3.000000)">
                        <rect id="linkedin-back" fill="#6C81E5" x="0.625" y="0.625" width="16" height="16" rx="1"></rect>
                        <path d="M4.2594,7.0933875 L6.117975,7.0933875 L6.117975,13.0673875 L4.2594,13.0673875 L4.2594,7.0933875 Z M5.1892125,4.1237125 C5.7831375,4.1237125 6.265325,4.606075 6.265325,5.200375 C6.265325,5.7948 5.7831375,6.2771625 5.1892125,6.2771625 C4.5929,6.2771625 4.1120625,5.7948 4.1120625,5.200375 C4.1120625,4.606075 4.5929,4.1237125 5.1892125,4.1237125 Z" id="Shape" fill="#FFFFFF"></path>
                        <path d="M7.282775,7.0933875 L9.0625,7.0933875 L9.0625,7.9101 L9.0880125,7.9101 C9.335575,7.440425 9.9414125,6.945125 10.844725,6.945125 C12.7246125,6.945125 13.072025,8.182125 13.072025,9.7910125 L13.072025,13.0673875 L11.215575,13.0673875 L11.215575,10.1622375 C11.215575,9.4694875 11.2036125,8.57825 10.2507375,8.57825 C9.2846625,8.57825 9.1372125,9.33325 9.1372125,10.112675 L9.1372125,13.0673875 L7.282775,13.0673875 L7.282775,7.0933875 Z" id="Shape" fill="#FFFFFF"></path>
                    </g>
                </g>
            </g>
        </g>
    </g>
</svg>