<svg xmlns="http://www.w3.org/2000/svg" width="24" height="24" viewBox="0 0 24 24">
  <path fill="#FFF" fill-rule="evenodd" d="M2.79781616,0 C1.25176765,0 0,1.25173965 0,2.79775356 C0,4.34376748 1.25176765,5.59550713 2.79781616,5.59550713 C4.34386467,5.59550713 5.59509532,4.34376748 5.59509532,2.79775356 C5.59509532,1.25173965 4.34386467,0 2.79781616,0 Z M23.8678958,12.9131631 C23.4995077,9.87966796 22.1161729,7.99534603 18.0225544,7.99534603 C15.6221248,7.99534603 14.002506,8.87870584 13.3253379,10.1599803 L13.2517677,10.1599803 L13.2517677,7.99534603 L8.78976103,7.99534603 L8.78976103,24 L13.4579791,24 L13.4579791,16.0642606 C13.4579791,13.9726579 13.8698649,11.9562348 16.4330081,11.9562348 C19.0085026,11.9562348 19.1996778,14.3410377 19.1996778,16.2108608 L19.1996778,24 L24,24 L24,15.2098986 C24,14.3850715 23.9554283,13.619851 23.8678958,12.9131631 Z M0,12.250509 L0,24 L5.59509532,24 L5.59509532,7.99534603 L0,7.99534603 L0,12.250509 Z"/>
</svg>
