<svg width="161px" height="36px" viewBox="0 0 161 36" version="1.1" xmlns="http://www.w3.org/2000/svg" xmlns:xlink="http://www.w3.org/1999/xlink">
    <!-- Generator: sketchtool 51.2 (57519) - http://www.bohemiancoding.com/sketch -->
    <title>FE4AD0D8-57CB-4C57-BA7F-F60F3B455A4B@</title>
    <desc>Created with sketchtool.</desc>
    <defs>
        <polygon id="path-1" points="0 0.101974458 32.6070678 0.101974458 32.6070678 35.4375 0 35.4375"></polygon>
        <polygon id="path-3" points="0.150950662 0.487125 7.17575874 0.487125 7.17575874 11.4811875 0.150950662 11.4811875"></polygon>
    </defs>
    <g id="Page-2" stroke="none" stroke-width="1" fill="none" fill-rule="evenodd">
        <g id="desktop-v21" transform="translate(-50.000000, -12765.000000)">
            <rect fill="#FFFFFF" x="0" y="0" width="1440" height="13193"></rect>
            <g id="Footer" transform="translate(0.000000, 12666.000000)" fill="#191B20">
                <rect id="Backer" x="0" y="0" width="1440" height="462"></rect>
            </g>
            <g id="Group-12" transform="translate(50.000000, 12765.000000)">
                <g id="logo-white">
                    <g id="Group-35">
                        <g id="Group-3" transform="translate(0.000000, 0.460463)">
                            <mask id="mask-2" fill="white">
                                <use xlink:href="#path-1"></use>
                            </mask>
                            <g id="Clip-2"></g>
                            <path d="M16.359908,1.46475 C14.8715024,1.46475 13.8897402,2.2865625 13.8278171,2.3405625 L13.7298661,2.410875 L3.05432762,8.7868125 C1.38071573,9.545625 1.35988706,11.3709375 1.35988706,11.4485625 L1.35988706,24.082875 C1.35988706,24.16275 1.38071573,25.988625 2.98508636,26.7114375 L13.8306318,33.1965 C13.9229535,33.276375 16.226492,35.200125 19.1537647,33.0946875 L29.2793136,26.911125 C29.4504465,26.8306875 31.3374115,26.0004375 31.2422752,24.0350625 L31.2422752,11.53125 C31.3374115,9.53325 29.4504465,8.7035625 29.3693836,8.6698125 L19.1965479,2.467125 C18.1438556,1.711125 17.1756038,1.46475 16.359908,1.46475 M16.3762332,35.4375 C14.8715024,35.4375 13.6375444,34.813125 12.9817227,34.26075 L2.3568486,27.914625 C0.00320874126,26.85825 -0.000731818182,24.1891875 -0.000168881119,24.076125 L-0.000168881119,11.451375 C-0.000731818182,11.3439375 0.00320874126,8.676 2.4266528,7.583625 L12.9817227,1.2740625 C14.106471,0.325125 16.932978,-0.8325 19.9491948,1.3359375 L29.9891773,7.46325 C30.0122577,7.4638125 32.7430654,8.6349375 32.6017682,11.5644375 L32.6017682,23.9866875 C32.7323696,26.9038125 30.0122577,28.0704375 29.8957297,28.11825 L19.9064115,34.225875 C18.6662612,35.118 17.451443,35.4375 16.3762332,35.4375" id="Fill-1" fill="#FFFFFF" mask="url(#mask-2)"></path>
                        </g>
                        <path d="M16.3494937,5.35955625 C15.1470601,5.35955625 14.3566965,6.03624375 14.3234832,6.06549375 L5.86647972,11.1263063 C4.52331189,11.7338063 4.50811259,13.1996813 4.50811259,13.2621187 L4.50811259,23.1896812 C4.50811259,23.2521188 4.52274895,24.7202438 5.81806713,25.3046813 L14.2531161,30.3384938 C14.4878608,30.5286187 15.2658399,31.0967438 16.3607524,31.0967438 C17.1066441,31.0967438 17.8514098,30.8334937 18.5747839,30.3143063 L26.5262699,25.4582438 C26.9293329,25.2731813 28.1638538,24.5953688 28.0946126,23.1497438 L28.0934867,13.3284938 C28.171172,11.7180563 26.6551825,11.0571188 26.5898818,11.0295563 L18.6046196,6.15999375 C17.8615427,5.62730625 17.1055182,5.35955625 16.3494937,5.35955625 M16.3843958,32.0574938 C14.8059203,32.0574938 13.735214,31.1513063 13.690742,31.1124938 L5.37390979,26.1551813 C3.59784336,25.3586813 3.54605315,23.4062437 3.54605315,23.1863063 L3.54605315,13.2654938 C3.54605315,13.0455563 3.59896923,11.0964938 5.42232238,10.2758063 L13.7605462,5.29036875 L13.7605462,5.29093125 C13.9913503,5.09180625 15.0006965,4.40105625 16.3748259,4.40105625 C17.3211231,4.40105625 18.2499692,4.72393125 19.1354692,5.36068125 L27.0278469,10.1768063 L27.0278469,10.1762438 C27.035728,10.1762438 29.1653189,11.0661188 29.0544203,13.3515563 L29.0555462,23.1182438 C29.1585636,25.3631813 27.0520531,26.2738687 26.9625462,26.3115562 L19.1056336,31.1141813 C18.2392734,31.7385563 17.3211231,32.0574938 16.3843958,32.0574938" id="Fill-4" fill="#FFFFFF"></path>
                        <path d="M16.360471,30.9560625 C15.313971,30.9560625 14.5686423,30.4126875 14.365422,30.2461875 L14.3490969,30.23325 L14.3260164,30.2180625 L5.90447797,25.191 L5.89040455,25.1825625 L5.87576818,25.176375 C4.66320175,24.6290625 4.64856538,23.248125 4.64856538,23.189625 L4.64856538,13.2620625 C4.64912832,13.2035625 4.66714231,11.8231875 5.91067028,11.26125 L5.92530664,11.2550625 L5.93881713,11.246625 L14.3761178,6.2004375 L14.3975094,6.1880625 L14.4160864,6.1711875 C14.4481738,6.1441875 15.2008206,5.500125 16.3492122,5.500125 C17.075401,5.500125 17.8032787,5.758875 18.5131423,6.2685 L26.4989675,11.13975 L26.5164185,11.151 L26.5349955,11.1594375 C26.5963556,11.18475 28.0256528,11.8085625 27.9530339,13.3149375 L27.9530339,23.126625 L27.9530339,23.135625 L27.9547227,23.1609375 C28.0194605,24.5165625 26.8502402,25.155 26.4899605,25.31925 L26.4747612,25.326 L26.4528066,25.338375 L18.5097647,30.1888125 C17.7937087,30.7018125 17.075964,30.9560625 16.360471,30.9560625 M16.3751073,4.2609375 C14.9908451,4.2609375 14.0017647,4.9145625 13.6904605,5.173875 L13.6882087,5.1705 L5.34885909,10.15425 C3.45964231,11.0154375 3.40503741,13.0370625 3.40503741,13.2654375 L3.40503741,23.18625 C3.40503741,23.4151875 3.45851643,25.4390625 5.31508287,26.283375 L13.6195304,31.2361875 C13.783908,31.370625 14.8523626,32.1980625 16.3841143,32.1980625 C17.3506773,32.1980625 18.2969745,31.870125 19.1965479,31.22325 L27.0376983,26.431875 C27.2848276,26.323875 29.2995794,25.3670625 29.1965619,23.10525 L29.195436,13.34475 C29.3007052,11.1763125 27.4531458,10.2166875 27.0951178,10.0535625 L19.1999255,5.234625 C18.3076703,4.59225 17.3518031,4.2609375 16.3751073,4.2609375 M16.360471,31.2373125 C17.0275514,31.2373125 17.8105969,31.0359375 18.6566913,30.429 L26.5991703,25.578 C26.7140094,25.52625 28.3161283,24.827625 28.2356283,23.1429375 L28.2345024,23.126625 L28.2345024,13.3284375 C28.3161283,11.6274375 26.7140094,10.9288125 26.6453311,10.900125 L18.6775199,6.040125 C17.8162262,5.421375 17.022485,5.218875 16.3492122,5.218875 C15.1062472,5.218875 14.2832332,5.914125 14.231443,5.9596875 L5.79414231,11.0053125 C4.3693486,11.649375 4.36709685,13.2463125 4.36709685,13.2620625 L4.36709685,23.189625 C4.36709685,23.257125 4.38004441,24.8101875 5.76036608,25.432875 L14.1813416,30.459375 C14.2652192,30.528 15.108499,31.2373125 16.360471,31.2373125 M16.3751073,4.5421875 C17.1604045,4.541625 18.077429,4.773375 19.052999,5.4748125 L26.9543836,10.2965625 C26.9943521,10.3089375 29.0186738,11.1774375 28.9139675,13.34475 L28.9150934,23.1181875 C29.0141703,25.2793125 26.9943521,26.1455625 26.9076598,26.182125 L19.0327332,30.9943125 C18.0701108,31.68675 17.1632192,31.9168125 16.3841143,31.9168125 C14.8450444,31.9168125 13.7985444,31.019625 13.7827822,31.006125 L5.44568427,26.0341875 C3.68932063,25.2455625 3.68650594,23.270625 3.68650594,23.18625 L3.68650594,13.2654375 C3.68650594,13.183875 3.68932063,11.2095 5.48002343,10.404 L13.8328836,5.41125 L13.8328836,5.4118125 C13.8385129,5.40225 14.8613696,4.5421875 16.3751073,4.5421875" id="Fill-6" fill="#FFFFFF"></path>
                        <path d="M16.343414,8.86089375 C15.4522846,8.86089375 14.8606378,9.36601875 14.8544455,9.37108125 L8.70604685,13.0503938 C7.7225958,13.4958938 7.71133706,14.5708312 7.71133706,14.6163938 L7.71133706,21.8360813 C7.71133706,21.8816438 7.7225958,22.9582688 8.67170769,23.3857688 L14.8054699,27.0476438 C15.019949,27.2220188 15.5710643,27.6017063 16.342851,27.6017063 C16.8883371,27.6017063 17.4332601,27.4093313 17.961858,27.0285188 L23.7454734,23.4977063 C24.0382007,23.3627063 24.9428406,22.8648938 24.8916133,21.8068313 L24.8916133,14.6642063 C24.947907,13.4930813 23.8377951,13.0003313 23.7905084,12.9800813 L17.9838126,9.43970625 C17.4467706,9.05495625 16.8962182,8.86089375 16.343414,8.86089375 M16.3619909,28.2722063 C15.2045923,28.2722063 14.4164804,27.5927063 14.4091622,27.5859563 L8.36096643,23.9803313 C7.02680559,23.3818313 7.03919021,21.8484563 7.03919021,21.8332688 L7.03919021,14.6180813 C7.03862727,14.6040188 7.02624266,13.0728938 8.39530559,12.4563938 L14.4603895,8.83051875 C14.4620783,8.81026875 15.2490643,8.18533125 16.3552357,8.18533125 C17.0392042,8.18533125 17.7130399,8.41933125 18.355351,8.88058125 L24.0956203,12.3843938 C24.1012497,12.3843938 25.6436972,13.0262063 25.5637601,14.6810813 L25.5637601,21.7843313 C25.636942,23.4071438 24.115886,24.0663938 24.0505853,24.0939563 L18.3333965,27.5876438 C17.7040329,28.0410188 17.0386413,28.2722063 16.3619909,28.2722063" id="Fill-8" fill="#FFFFFF"></path>
                        <path d="M16.342851,27.5316188 C15.5958336,27.5316188 15.0599175,27.1631813 14.8640154,27.0045563 L14.8561343,26.9983688 L14.840935,26.9876813 L8.71449091,23.3291813 C7.7924,22.9129313 7.7817042,21.8801813 7.7817042,21.8363063 L7.7817042,14.6166188 C7.7817042,14.5727438 7.79352587,13.5411188 8.72743846,13.1181188 L14.8803406,9.43936875 C14.9062357,9.41968125 15.4826832,8.93143125 16.343414,8.93143125 C16.8810189,8.93143125 17.4174979,9.12099375 17.9382147,9.49449375 L23.7443476,13.0354313 C23.8085224,13.0641188 24.8752881,13.5309938 24.8212462,14.6576813 L24.8212462,21.8031188 C24.8707846,22.8251813 23.9987951,23.3038688 23.7302741,23.4264938 L17.9292077,26.9651813 C17.4039874,27.3431813 16.8731378,27.5316188 16.342851,27.5316188 M16.3546727,8.11468125 C15.4725503,8.11468125 14.6664245,8.53374375 14.4271762,8.77449375 L14.4249245,8.77055625 L8.35252238,12.3998063 C6.9570014,13.0269938 6.96882308,14.6053688 6.96882308,14.6211188 L6.96882308,21.8340563 C6.9676972,21.8964938 6.95756434,23.4287438 8.33957483,24.0486188 L14.3849559,27.6559313 C14.3815783,27.6559313 15.1820748,28.3421813 16.3619909,28.3421813 C17.0544035,28.3421813 17.7327427,28.1064938 18.3789944,27.6418688 L24.0967462,24.1493063 C24.1451587,24.1301813 25.7095608,23.4467438 25.6341273,21.7772438 L25.6341273,14.6773688 C25.7101238,13.1147438 24.3585119,12.4262438 24.1299594,12.3227438 L18.3874385,8.81780625 C17.7411867,8.35318125 17.0549664,8.11468125 16.3546727,8.11468125 M16.342851,27.6722438 C16.8241622,27.6722438 17.3904769,27.5259938 18.0029524,27.0855563 L23.7826273,23.5575563 C23.8665049,23.5181813 25.0210888,23.0153063 24.9619804,21.8031188 L24.9619804,14.6644313 C25.0210888,13.4398688 23.8665049,12.9364313 23.8180923,12.9156188 L18.0204035,9.37974375 C17.4022986,8.93593125 16.8292287,8.79080625 16.343414,8.79080625 C15.4247007,8.79080625 14.8178545,9.30999375 14.8082846,9.31843125 L8.66945594,12.9898688 C7.64322168,13.4550563 7.64096993,14.6048063 7.64096993,14.6166188 L7.64096993,21.8363063 C7.64096993,21.8852438 7.65053986,23.0029313 8.64243497,23.4501188 L14.768879,27.1080563 C14.831365,27.1586813 15.4399,27.6722438 16.342851,27.6722438 M16.3546727,8.25530625 C16.9288685,8.25530625 17.5993266,8.42461875 18.3142566,8.93761875 L24.0590294,12.4442438 C24.0860503,12.4515563 25.5705154,13.0888688 25.493393,14.6773688 L25.493393,21.7839938 C25.564886,23.3679938 24.0860503,24.0030563 24.0235643,24.0289313 L18.2968056,27.5276813 C17.5942601,28.0333688 16.9316832,28.2015563 16.3619909,28.2015563 C15.2361168,28.2015563 14.4688336,27.5451188 14.4575748,27.5349938 L8.39755734,23.9198063 C7.11180909,23.3432438 7.10843147,21.8953688 7.10955734,21.8340563 L7.10955734,14.6183063 C7.10843147,14.5592438 7.11180909,13.1113688 8.42457832,12.5201813 L14.4969804,8.89093125 L14.4958545,8.89093125 C14.4936028,8.89093125 15.2423091,8.25586875 16.3546727,8.25530625" id="Fill-10" fill="#FFFFFF"></path>
                        <path d="M16.322529,12.4990313 C15.8158857,12.4990313 15.4826269,12.7853438 15.4792493,12.7881563 L11.6191899,15.1000313 C11.0658227,15.3520313 11.0590675,15.9443438 11.0590675,15.9696563 L11.0590675,20.4825937 C11.0590675,20.5079063 11.0652598,21.1024688 11.5848507,21.3364688 L15.4308367,23.6325938 C15.562564,23.7372188 15.8885045,23.9582813 16.3304101,23.9582813 C16.6456549,23.9582813 16.9608997,23.8463438 17.2677003,23.6258438 L20.8885115,21.4140938 C21.1041164,21.3122813 21.5724801,21.0304688 21.5443332,20.4707813 L21.5443332,16.0005938 C21.5758577,15.3537188 20.9600045,15.0758438 20.9335465,15.0645938 L17.288529,12.8427187 C16.9682178,12.6137813 16.644529,12.4990313 16.322529,12.4990313 M16.3298472,24.6315938 C15.7629696,24.6315938 15.2901024,24.3942188 15.0373437,24.1725938 L11.2741094,21.9315938 C10.4128157,21.5457188 10.3874836,20.5889063 10.3874836,20.4809062 L10.3874836,15.9719062 C10.3874836,15.8639062 10.4133787,14.9093437 11.3084486,14.5054688 L15.0868822,12.2464688 C15.2979836,12.0557813 15.7562143,11.8234687 16.3185885,11.8234687 C16.7835745,11.8234687 17.23505,11.9775938 17.6589416,12.2830313 C17.6589416,12.2830313 21.2386584,14.4672188 21.2392213,14.4672188 C21.2628647,14.4672188 21.546585,14.6129063 21.7830185,14.8609687 C22.0881304,15.1810313 22.2378717,15.5809688 22.2164801,16.0169062 L22.2164801,20.4482813 C22.2665815,21.5575313 21.2358437,21.9929063 21.1919346,22.0103438 L17.6381129,24.1849688 C17.2271689,24.4808438 16.7858262,24.6315938 16.3298472,24.6315938" id="Fill-12" fill="#FFFFFF"></path>
                        <path d="M16.3296783,23.8879688 C15.9097273,23.8879688 15.6006748,23.6770313 15.4869615,23.5864688 L11.627465,21.2802188 C11.1348951,21.0574688 11.1298287,20.5062188 11.1298287,20.4831563 L11.1298287,15.9696563 C11.1298287,15.9465937 11.1377098,15.3959062 11.6409755,15.1675312 L15.5055385,12.8556563 C15.5291818,12.8376563 15.8427378,12.5693438 16.3223601,12.5693438 C16.6297238,12.5693438 16.9399021,12.6795937 17.2433252,12.8972812 L20.8889056,15.1197188 C20.9311259,15.1394063 21.5030699,15.3930937 21.4743601,15.9938438 L21.4743601,20.4674063 C21.5002552,20.9905313 21.0617273,21.2537813 20.8720175,21.3437813 L17.2348811,23.5628438 C16.931458,23.7805313 16.6302867,23.8879688 16.3296783,23.8879688 M16.3184196,11.7531562 C15.7369056,11.7531562 15.2606608,11.9944687 15.0287308,12.2020312 L11.2654965,14.4492188 C10.3439685,14.8632188 10.3169476,15.8599688 10.3169476,15.9719062 L10.3169476,20.4809062 C10.3169476,20.5934063 10.3428427,21.5912813 11.2531119,21.9990938 L15.0112797,24.2406563 C15.2533427,24.4560938 15.7430979,24.7019063 16.3296783,24.7019063 C16.8014196,24.7019063 17.2562727,24.5460938 17.683542,24.2395312 L21.2390524,22.0660313 C21.2649476,22.0564688 22.3390315,21.5985937 22.2866783,20.4420937 L22.2866783,16.0135312 C22.3091958,15.5640937 22.1526993,15.1461563 21.8340769,14.8120312 C21.6426783,14.6112187 21.4011783,14.4582188 21.2722657,14.4064687 L17.6914231,12.2205937 C17.2635909,11.9123438 16.7991678,11.7531562 16.3184196,11.7531562 M16.3296783,24.0285938 C16.6145245,24.0285938 16.9483462,23.9425313 17.3086259,23.6832188 L20.9254965,21.4737187 C20.9874196,21.4439063 21.6488706,21.1530938 21.6150944,20.4674062 L21.6150944,16.0005938 C21.6488706,15.2940938 20.9677168,15.0021563 20.9620874,14.9993438 L17.325514,12.7830937 C16.9522867,12.5159063 16.610021,12.4287188 16.3223601,12.4287188 C15.7999545,12.4287188 15.4548741,12.7161562 15.4329196,12.7352813 L11.5824301,15.0398437 C10.9902203,15.3092813 10.9890944,15.9629063 10.9890944,15.9696563 L10.9890944,20.4831563 C10.9890944,20.5107187 10.9969755,21.1491563 11.555972,21.4005938 L15.3946399,23.6927812 C15.4419266,23.7304688 15.8010804,24.0285938 16.3296783,24.0285938 M16.3184196,11.8937812 C16.7107867,11.8937812 17.1588846,12.0096562 17.6176783,12.3404063 L21.2013357,14.5274062 C21.2097797,14.5274062 22.1982972,14.9526563 22.1459441,16.0135312 L22.1459441,20.4482813 C22.1937937,21.5052187 21.207528,21.9282187 21.1653077,21.9456562 L17.6013531,24.1253437 C17.1549441,24.4459688 16.717542,24.5612813 16.3296783,24.5612813 C15.7718077,24.5612813 15.3158287,24.3233437 15.0833357,24.1197188 L11.3105315,21.8708437 C10.4582448,21.4889062 10.4576818,20.5219687 10.4576818,20.4809062 L10.4576818,15.9719062 C10.4576818,15.9325313 10.4582448,14.9661562 11.3375524,14.5701563 L15.1227413,12.3066563 C15.3299021,12.1215938 15.768993,11.8937812 16.3184196,11.8937812" id="Fill-14" fill="#FFFFFF"></path>
                        <path d="M50.4626916,19.3890938 L48.9348804,16.0292813 L48.8887196,16.0292813 L47.391307,19.3890938 L50.4626916,19.3890938 Z M43.8611287,22.6414687 L48.6140063,12.3657188 C48.6596042,12.2734688 48.7361636,12.1975313 48.8735203,12.1975313 L49.0260762,12.1975313 C49.1791951,12.1975313 49.2399923,12.2734688 49.2861531,12.3657188 L53.9928699,22.6414687 C54.0846287,22.8400312 53.9624713,23.0385937 53.7333559,23.0385937 L52.4031357,23.0385937 C52.1745832,23.0385937 52.0676252,22.9463437 51.9601042,22.7331563 L51.2113979,21.0844687 L46.6426007,21.0844687 L45.8938944,22.7331563 C45.8325343,22.8861562 45.6951776,23.0385937 45.4508629,23.0385937 L44.1212056,23.0385937 C43.8920902,23.0385937 43.7693699,22.8400312 43.8611287,22.6414687 Z" id="Fill-16" fill="#FFFFFF"></path>
                        <path d="M59.509822,12.71655 C59.509822,12.5179875 59.662378,12.3503625 59.8762941,12.3503625 L61.2211507,12.3503625 C61.4198675,12.3503625 61.5876227,12.5179875 61.5876227,12.71655 L61.5876227,16.8391125 L65.4386752,12.5028 C65.5000353,12.4257375 65.5917941,12.3503625 65.7291507,12.3503625 L67.2575248,12.3503625 C67.5474374,12.3503625 67.7005563,12.6709875 67.5012766,12.8993625 L63.5128675,17.388675 L67.7917521,22.5034875 C67.944308,22.7026125 67.8227136,23.0389875 67.5170388,23.0389875 L65.851308,23.0389875 C65.6981892,23.0389875 65.6064304,22.9771125 65.5760318,22.93155 L61.5876227,18.0147375 L61.5876227,22.671675 C61.5876227,22.8708 61.4198675,23.0389875 61.2211507,23.0389875 L59.8762941,23.0389875 C59.662378,23.0389875 59.509822,22.8708 59.509822,22.671675 L59.509822,12.71655 Z" id="Fill-18" fill="#FFFFFF"></path>
                        <path d="M78.0927685,17.2209375 C78.902272,17.2209375 79.6059434,16.518375 79.6059434,15.663375 C79.6059434,14.8539375 78.902272,14.182875 78.0927685,14.182875 L75.601772,14.182875 L75.601772,17.2209375 L78.0927685,17.2209375 Z M73.6005308,12.6399375 C73.6005308,12.4875 73.7221252,12.35025 73.8904434,12.35025 L78.2610867,12.35025 C80.0945727,12.35025 81.5919853,13.8155625 81.5919853,15.633 C81.5919853,17.038125 80.6603245,18.1828125 79.3301042,18.7171875 L81.4242301,22.5961875 C81.5306252,22.7941875 81.4242301,23.038875 81.1641531,23.038875 L79.5592196,23.038875 C79.4218629,23.038875 79.3458664,22.9618125 79.3154678,22.901625 L77.283265,18.8544375 L75.5865727,18.8544375 L75.5865727,22.748625 C75.5865727,22.901625 75.4492161,23.038875 75.2960972,23.038875 L73.8904434,23.038875 C73.7221252,23.038875 73.6005308,22.901625 73.6005308,22.748625 L73.6005308,12.6399375 Z" id="Fill-20" fill="#FFFFFF"></path>
                        <path d="M92.6252703,21.20625 C94.550515,21.20625 96.1396864,19.6335 96.1396864,17.7091875 C96.1396864,15.7854375 94.550515,14.182875 92.6252703,14.182875 C90.6994626,14.182875 89.1254906,15.7854375 89.1254906,17.7091875 C89.1254906,19.6335 90.6994626,21.20625 92.6252703,21.20625 M92.6252703,12.19725 C95.6814556,12.19725 98.1262913,14.655375 98.1262913,17.7091875 C98.1262913,20.7635625 95.6814556,23.1913125 92.6252703,23.1913125 C89.568522,23.1913125 87.1394486,20.7635625 87.1394486,17.7091875 C87.1394486,14.655375 89.568522,12.19725 92.6252703,12.19725" id="Fill-22" fill="#FFFFFF"></path>
                        <path d="M108.014224,17.2972688 C108.869889,17.2972688 109.588197,16.6098938 109.588197,15.7093313 C109.588197,14.8695188 108.869889,14.2277063 108.014224,14.2277063 L106.241536,14.2277063 L106.241536,17.2972688 L108.014224,17.2972688 Z M104.254931,12.6403312 C104.254931,12.4873313 104.377088,12.3500813 104.545406,12.3500813 L108.136382,12.3500813 C110.016029,12.3500813 111.559039,13.8772688 111.559039,15.7245188 C111.559039,17.6178938 110.016029,19.1602688 108.151581,19.1602688 L106.241536,19.1602688 L106.241536,22.7484563 C106.241536,22.9014563 106.103616,23.0387063 105.95106,23.0387063 L104.545406,23.0387063 C104.377088,23.0387063 104.254931,22.9014563 104.254931,22.7484563 L104.254931,12.6403312 Z" id="Fill-24" fill="#FFFFFF"></path>
                        <path d="M122.149743,21.20625 C124.074988,21.20625 125.664159,19.6335 125.664159,17.7091875 C125.664159,15.7854375 124.074988,14.182875 122.149743,14.182875 C120.223935,14.182875 118.649963,15.7854375 118.649963,17.7091875 C118.649963,19.6335 120.223935,21.20625 122.149743,21.20625 M122.149743,12.19725 C125.205928,12.19725 127.650764,14.655375 127.650764,17.7091875 C127.650764,20.7635625 125.205928,23.1913125 122.149743,23.1913125 C119.092995,23.1913125 116.663921,20.7635625 116.663921,17.7091875 C116.663921,14.655375 119.092995,12.19725 122.149743,12.19725" id="Fill-26" fill="#FFFFFF"></path>
                        <path d="M133.779009,12.6401625 C133.779009,12.487725 133.901167,12.3499125 134.069485,12.3499125 L135.475139,12.3499125 C135.627695,12.3499125 135.765051,12.487725 135.765051,12.6401625 L135.765051,21.206475 L139.661702,21.206475 C139.83002,21.206475 139.952177,21.343725 139.952177,21.4961625 L139.952177,22.74885 C139.952177,22.9012875 139.83002,23.0385375 139.661702,23.0385375 L134.069485,23.0385375 C133.901167,23.0385375 133.779009,22.9012875 133.779009,22.74885 L133.779009,12.6401625 Z" id="Fill-28" fill="#FFFFFF"></path>
                        <path d="M145.622699,12.6401625 C145.622699,12.487725 145.760055,12.3499125 145.913174,12.3499125 L147.334027,12.3499125 C147.487146,12.3499125 147.624503,12.487725 147.624503,12.6401625 L147.624503,22.74885 C147.624503,22.9012875 147.487146,23.0385375 147.334027,23.0385375 L145.913174,23.0385375 C145.760055,23.0385375 145.622699,22.9012875 145.622699,22.74885 L145.622699,12.6401625 Z" id="Fill-30" fill="#FFFFFF"></path>
                        <g id="Group-34" transform="translate(153.681818, 11.710463)">
                            <mask id="mask-4" fill="white">
                                <use xlink:href="#path-3"></use>
                            </mask>
                            <g id="Clip-33"></g>
                            <path d="M0.223317133,9.8319375 L0.77386958,8.8846875 C0.895463986,8.6715 1.15497797,8.6715 1.29289755,8.778375 C1.36945699,8.8239375 2.60679266,9.7250625 3.60037657,9.7250625 C4.39468077,9.7250625 4.99083112,9.205875 4.99083112,8.548875 C4.99083112,7.770375 4.33388357,7.236 3.04982413,6.7168125 C1.61377168,6.1363125 0.177156294,5.2205625 0.177156294,3.4183125 C0.177156294,2.059875 1.18593951,0.487125 3.61557587,0.487125 C5.1743486,0.487125 6.36608636,1.2808125 6.67176119,1.50975 C6.82488007,1.6014375 6.87047797,1.8613125 6.76351993,2.0143125 L6.18313182,2.8839375 C6.06041154,3.067875 5.83129615,3.189375 5.64834161,3.067875 C5.52562133,2.9908125 4.36428217,2.2269375 3.52381713,2.2269375 C2.6529535,2.2269375 2.17952343,2.808 2.17952343,3.29625 C2.17952343,4.014 2.74471224,4.50225 3.98261084,5.0068125 C5.46482413,5.6019375 7.1761528,6.487875 7.1761528,8.45775 C7.1761528,10.0305 5.81609685,11.4811875 3.66117378,11.4811875 C1.73649196,11.4811875 0.605551399,10.5800625 0.299876573,10.2898125 C0.16251993,10.152 0.0859604895,10.0760625 0.223317133,9.8319375" id="Fill-32" fill="#FFFFFF" mask="url(#mask-4)"></path>
                        </g>
                    </g>
                </g>
            </g>
        </g>
    </g>
</svg>