<svg width="245px" height="55px" viewBox="0 0 245 55" version="1.1" xmlns="http://www.w3.org/2000/svg" xmlns:xlink="http://www.w3.org/1999/xlink">
    <!-- Generator: sketchtool 51.2 (57519) - http://www.bohemiancoding.com/sketch -->
    <title>9EC66AC9-8304-49C0-9E1B-0C65B7F2A8D2</title>
    <desc>Created with sketchtool.</desc>
    <defs>
        <polygon id="path-1" points="0 0.156158767 49.6194511 0.156158767 49.6194511 54.140625 0 54.140625"></polygon>
        <polygon id="path-3" points="0.229707529 0.743789062 10.9196329 0.743789062 10.9196329 17.5402734 0.229707529 17.5402734"></polygon>
    </defs>
    <g id="Page-2" stroke="none" stroke-width="1" fill="none" fill-rule="evenodd">
        <g id="desktop-v21" transform="translate(-50.000000, -37.000000)">
            <g id="Group-11" transform="translate(50.000000, 37.000000)">
                <g id="LOGO-DARK">
                    <g id="Group-35">
                        <g id="Group-3" transform="translate(0.000000, 0.703484)">
                            <mask id="mask-2" fill="white">
                                <use xlink:href="#path-1"></use>
                            </mask>
                            <g id="Clip-2"></g>
                            <path d="M24.8955122,2.2378125 C22.6305472,2.2378125 21.1365612,3.49335937 21.0423304,3.575 L20.8932745,3.68328125 L4.64788986,13.4242969 C2.10108916,14.5835937 2.06939336,17.373125 2.06939336,17.4908594 L2.06939336,36.7924219 C2.06939336,36.9153125 2.10108916,39.7039844 4.54252273,40.8082813 L21.0466136,50.716875 C21.1871031,50.8389063 24.6924878,53.7779688 29.1470332,50.5613281 L44.5554773,41.1142187 C44.8158969,40.9904687 47.6873654,39.72375 47.5425927,36.7202344 L47.5425927,17.6171875 C47.6873654,14.5646875 44.8158969,13.2971094 44.6925402,13.2446875 L29.2121381,3.76921875 C27.610215,2.61507812 26.1367885,2.2378125 24.8955122,2.2378125 M24.9203549,54.140625 C22.6305472,54.140625 20.752785,53.1867188 19.7547955,52.3419531 L3.58650874,42.6473437 C0.00488286713,41.0325781 -0.00111363636,36.9557031 -0.000256993007,36.7838281 L-0.000256993007,17.4951563 C-0.00111363636,17.331875 0.00488286713,13.255 3.69273252,11.5860937 L19.7547955,1.94648437 C21.4663689,0.49671875 25.7675752,-1.27101563 30.3574703,2.04101562 L45.6357045,11.4021875 C45.6708269,11.4030469 49.8264038,13.1922656 49.6113864,17.6678906 L49.6113864,36.6463281 C49.8101276,41.1030469 45.6708269,42.8845313 45.4935017,42.9575781 L30.2923654,52.2903906 C28.4051801,53.6525 26.5565437,54.140625 24.9203549,54.140625" id="Fill-1" fill="#2D3D66" mask="url(#mask-2)"></path>
                        </g>
                        <path d="M24.8796643,7.97336719 C22.9873392,7.97336719 21.7349266,9.03555469 21.6561154,9.10430469 L8.8176014,16.8137578 C6.64943706,17.7977422 6.64601049,20.2366484 6.64601049,20.2615703 L6.64601049,35.4286797 C6.64601049,35.5318047 6.66485664,37.9045391 8.76534615,38.8550078 L21.5798741,46.5352422 C21.7760455,46.6959453 24.6869196,49.1563359 28.3910455,46.4879766 L40.4774266,39.0775859 C40.6513252,38.9976641 43.0901888,37.9311797 42.9668322,35.3573516 L42.9651189,35.3324297 L42.9651189,20.3629766 C43.0901888,17.7633672 40.6513252,16.6968828 40.5468147,16.6530547 L28.4227413,9.22805469 C27.1112203,8.28360156 25.9033531,7.97336719 24.8796643,7.97336719 M24.9327762,48.7618828 C22.5898566,48.7618828 20.9982133,47.3911797 20.9733706,47.3705547 L8.28733916,39.7736797 C5.61461189,38.5696953 5.61032867,35.5524297 5.61032867,35.4243828 L5.61032867,20.2658672 C5.61032867,20.1429766 5.61461189,17.1257109 8.33873776,15.8950859 L21.0496119,8.26727344 L21.0496119,8.26813281 C21.0376189,8.26727344 24.6303811,5.21563281 28.9941224,8.36438281 L41.0179685,15.7318047 C41.0779336,15.7498516 44.1592797,17.0767266 43.9990874,20.3878984 L44.0008007,35.3195391 C44.1515699,38.6212578 41.0779336,39.9455547 40.9468671,39.9996953 L28.9624266,47.3533672 C27.4984231,48.4095391 26.117514,48.7618828 24.9327762,48.7618828" id="Fill-4" fill="#2D3D66"></path>
                        <path d="M24.8963689,47.2935547 C23.3038689,47.2935547 22.1696731,46.4642578 21.8604248,46.2098828 L21.8355822,46.1892578 L21.8004598,46.1660547 L8.98507517,38.4858203 L8.96365909,38.4737891 L8.94138636,38.4634766 C7.09617657,37.6281641 7.07390385,35.5183984 7.07390385,35.4290234 L7.07390385,20.2610547 C7.07476049,20.1716797 7.10217308,18.0636328 8.99449825,17.2051172 L9.01677098,17.1948047 L9.03733042,17.1819141 L21.876701,9.47332031 L21.9092535,9.45355469 L21.9375227,9.42863281 C21.9854948,9.38738281 23.1333969,8.40339844 24.879236,8.40339844 C25.9843059,8.40339844 27.0919458,8.79871094 28.1721731,9.57730469 L40.3236591,17.0194922 L40.3510717,17.0358203 L40.3801976,17.0487109 C40.472715,17.0882422 42.6477325,18.0395703 42.5372255,20.3418359 L42.5372255,35.3327734 L42.5372255,35.3465234 L42.5397955,35.3860547 C42.6383094,37.4554297 40.8590612,38.4316797 40.3108094,38.6817578 L40.2876801,38.6929297 L40.254271,38.7109766 L28.1670332,46.1213672 C27.0773829,46.9051172 25.9851626,47.2935547 24.8963689,47.2935547 M24.9186416,6.50933594 C22.8155822,6.50933594 21.3070332,7.50878906 20.8333094,7.90496094 L20.8298829,7.89980469 L8.13956818,15.5138672 C5.26467308,16.8287109 5.18157867,19.9173047 5.18157867,20.2662109 L5.18157867,35.4238672 C5.18157867,35.7736328 5.26295979,38.8648047 8.08816958,40.1555859 L20.7245157,47.7215234 C20.9755122,47.9294922 22.5937115,49.1910547 24.9323479,49.1910547 C26.4032045,49.1910547 27.843222,48.6900391 29.2121381,47.7017578 L41.1443234,40.3824609 C41.5203899,40.2166016 44.5854598,38.7556641 44.4295507,35.3001172 L44.4278374,20.3882422 C44.5880297,17.0753516 41.7765262,15.6092578 41.231701,15.3591797 L29.217278,7.99691406 C27.8594983,7.01550781 26.4049178,6.50933594 24.9186416,6.50933594 M24.8963689,47.7232422 C25.9114913,47.7232422 27.1030822,47.4155859 28.3906171,46.4883203 L40.4769983,39.0779297 C40.6517535,38.9980078 43.0897605,37.9315234 42.9672605,35.3576953 L42.9655472,35.3327734 L42.9655472,20.3624609 C43.0897605,17.7637109 40.6517535,16.6972266 40.547243,16.6525391 L28.4223129,9.22839844 C27.1116486,8.28308594 25.9029248,7.97371094 24.879236,7.97371094 C22.9877675,7.97371094 21.7353549,9.03589844 21.6565437,9.10464844 L8.81717308,16.8141016 C6.64900874,17.7972266 6.64558217,20.2369922 6.64558217,20.2610547 L6.64558217,35.4290234 C6.64558217,35.5312891 6.66528497,37.9048828 8.76577448,38.8553516 L21.5803024,46.5355859 C21.7079423,46.6395703 22.9911941,47.7232422 24.8963689,47.7232422 M24.9186416,6.93902344 C26.1136591,6.93902344 27.5091311,7.29222656 28.9936941,8.36386719 L41.0175402,15.7312891 C41.0783619,15.7493359 44.1588514,17.0762109 43.9995157,20.3882422 L44.001229,35.3190234 C44.1519983,38.6216016 41.0783619,39.9450391 40.9464388,40.0000391 L28.9628549,47.3528516 C27.4988514,48.4098828 26.1179423,48.7613672 24.9323479,48.7613672 C22.590285,48.7613672 20.997785,47.3906641 20.973799,47.3700391 L8.28691084,39.7740234 C5.61418357,38.5691797 5.60990035,35.5519141 5.60990035,35.4238672 L5.60990035,20.2662109 C5.60990035,20.1424609 5.61418357,17.1251953 8.33916608,15.8945703 L21.0500402,8.26761719 L21.0500402,8.26847656 L21.0500402,8.26761719 C21.0586066,8.25386719 22.6151276,6.93902344 24.9186416,6.93902344" id="Fill-6" fill="#2D3D66"></path>
                        <path d="M24.8704126,13.4300547 C23.4723706,13.4300547 22.5489091,14.2241172 22.5343462,14.2361484 L13.1926503,19.8461484 C11.6301329,20.5559922 11.6275629,22.3125547 11.6275629,22.3306016 L11.6275629,33.3606797 C11.6275629,33.4354453 11.6421259,35.1438828 13.1515315,35.8270859 L22.4743811,41.4156016 C22.6208671,41.5333359 24.7170734,43.3156797 27.3957972,41.3803672 L36.1909545,35.9903672 C36.3185944,35.9310703 38.0755699,35.1619297 37.9856224,33.3108359 L37.9856224,22.4045078 C38.0755699,20.5327891 36.3185944,19.7636484 36.2449231,19.7318516 L27.4223531,14.3306797 C26.4817587,13.6526328 25.6088392,13.4300547 24.8704126,13.4300547 M24.8986818,43.0862266 C23.1845385,43.0862266 22.0177902,42.0833359 22.0006573,42.0678672 L12.7788916,36.5438047 C10.8223182,35.6638047 10.8171783,33.4517734 10.8188916,33.3581016 L10.8188916,22.3340391 C10.8171783,22.2429453 10.8223182,20.0317734 12.8200105,19.1285703 L22.0606224,13.5838828 L22.0589091,13.5838828 C22.0529126,13.5847422 24.6742413,11.3520859 27.869521,13.6552109 L36.6115664,19.0125547 C36.6526853,19.0237266 38.9107972,19.9965391 38.7942937,22.4242734 L38.7942937,33.2816172 C38.9030874,35.7007578 36.6526853,36.6709922 36.5575979,36.7113828 L27.842965,42.0566953 C26.7738741,42.8284141 25.7656049,43.0862266 24.8986818,43.0862266" id="Fill-8" fill="#2D3D66"></path>
                        <path d="M24.8695559,42.062625 C23.7327902,42.062625 22.9172657,41.498875 22.6191538,41.2573906 L22.6071608,41.2470781 L22.5840315,41.23075 L13.2611818,35.6422344 C11.858,35.0054375 11.8417238,33.4284844 11.8417238,33.3605937 L11.8417238,22.3305156 C11.8417238,22.2634844 11.8597133,20.6873906 13.2808846,20.042 L22.6439965,14.4208281 C22.6834021,14.39075 23.5606049,13.6448125 24.8704126,13.6448125 C25.688507,13.6448125 26.5048881,13.9344219 27.2981399,14.5059062 L36.1335594,19.9156719 C36.2303601,19.9595 37.8536993,20.6727812 37.7723182,22.3941094 L37.7714615,33.31075 C37.8468462,34.871375 36.5199056,35.6035625 36.1112867,35.7909062 L27.2835769,41.1972344 C26.4843287,41.7747344 25.676514,42.062625 24.8695559,42.062625 M24.8875455,12.3978594 C23.5451853,12.3978594 22.318472,13.0372344 21.9543986,13.4059062 L21.950972,13.3990313 L12.7103601,18.9445781 C10.5901678,19.9010625 10.6030175,22.2385625 10.6047308,22.3373906 L10.6047308,33.3580156 C10.6030175,33.4534062 10.5901678,35.7952031 12.6906573,36.7405156 L21.8901503,42.2516875 C21.8858671,42.2516875 23.0971608,43.3009844 24.8986818,43.3009844 C25.9523531,43.3009844 26.9846084,42.9409062 27.9671783,42.2310625 L36.6689615,36.8943437 C36.7426329,36.8659844 39.1232448,35.8209844 39.0084545,33.2712187 L39.0084545,22.4241875 C39.1232448,20.0394219 37.0664441,18.9849688 36.7195035,18.8268438 L27.9808846,13.4720781 C26.997458,12.7622344 25.9532098,12.3978594 24.8875455,12.3978594 M24.8695559,42.2774687 C25.601986,42.2774687 26.4637692,42.0540312 27.3957972,41.3811406 L36.1909545,35.9902812 C36.319451,35.9309844 38.0755699,35.1618438 37.9856224,33.31075 L37.9856224,22.4044219 C38.0755699,20.5327031 36.319451,19.7635625 36.2449231,19.732625 L27.4223531,14.3305938 C26.4817587,13.6525469 25.6096958,13.4299688 24.8704126,13.4299688 C23.4723706,13.4299688 22.5489091,14.2240313 22.5343462,14.2369219 L13.1926503,19.8460625 C11.6309895,20.5559062 11.6275629,22.3124688 11.6275629,22.3305156 L11.6275629,33.3605937 C11.6275629,33.4353594 11.6421259,35.1437969 13.1515315,35.827 L22.4743811,41.4155156 C22.5694685,41.492 23.4955,42.2774687 24.8695559,42.2774687 M24.8875455,12.6127031 C25.7613217,12.6127031 26.7815839,12.871375 27.869521,13.655125 L36.6115664,19.0124688 C36.6526853,19.0236406 38.9116538,19.9964531 38.7942937,22.4241875 L38.7942937,33.2815312 C38.9030874,35.7006719 36.6526853,36.6709062 36.5575979,36.7112969 L27.842965,42.0566094 C26.7738741,42.8291875 25.7656049,43.0861406 24.8986818,43.0861406 C23.1853951,43.0861406 22.0177902,42.08325 22.0006573,42.0677812 L12.7788916,36.5445781 C10.8223182,35.6637187 10.8171783,33.4516875 10.8188916,33.3580156 L10.8188916,22.3339531 C10.8171783,22.2428594 10.8223182,20.0316875 12.8200105,19.1284844 L22.0606224,13.5837969 L22.0597657,13.5837969 C22.0554825,13.5837969 23.1948182,12.6127031 24.8875455,12.6127031" id="Fill-10" fill="#2D3D66"></path>
                        <path d="M24.8386311,18.9883203 C24.0428094,18.9883203 23.5185437,19.4274609 23.4851346,19.4566797 L17.6256941,22.9775391 C16.7236486,23.3891797 16.7219353,24.3877734 16.7219353,24.3980859 L16.7219353,31.2937109 C16.7219353,31.3366797 16.734785,32.3112109 17.5845752,32.6962109 L23.4268829,36.1973047 C23.5365332,36.2849609 24.769243,37.3162109 26.3394703,36.1818359 L31.8434038,32.8079297 C31.9376346,32.7615234 32.9441906,32.3172266 32.8919353,31.2696484 L32.8919353,24.4453516 C32.9441906,23.3659766 31.9076521,22.9199609 31.898229,22.9156641 L26.3643129,19.5288672 C25.797215,19.1215234 25.2763759,18.9883203 24.8386311,18.9883203 M24.8497675,37.5241797 C23.9999773,37.5241797 23.3069528,37.1615234 22.9531591,36.8504297 L17.2119353,33.4137891 C15.9149773,32.8302734 15.9141206,31.3530078 15.9141206,31.2902734 L15.9141206,24.4015234 C15.9141206,24.3413672 15.9149773,22.8649609 17.2530542,22.2591016 L23.0131241,18.8018359 C23.5510962,18.3180078 25.1307465,17.6399609 26.8097675,18.8533984 L32.2631591,22.1946484 C32.2760087,22.1946484 33.7802745,22.8443359 33.7006066,24.4651172 L33.7006066,31.2404297 C33.7734213,32.8551953 32.2734388,33.5014453 32.2083339,33.5280859 L26.7840682,36.8581641 C26.1056066,37.3480078 25.4399948,37.5241797 24.8497675,37.5241797" id="Fill-12" fill="#2D3D66"></path>
                        <path d="M24.8503671,36.4955078 C24.2113112,36.4955078 23.7401573,36.1732422 23.5671154,36.0348828 L17.6939685,32.5114453 C16.9444056,32.1711328 16.9366958,31.3289453 16.9366958,31.2937109 L16.9366958,24.3980859 C16.9366958,24.3628516 16.9486888,23.5223828 17.714528,23.1726172 L23.5953846,19.6405859 C23.6313636,19.6130859 24.1076573,19.2031641 24.8383741,19.2031641 C25.3061014,19.2031641 25.7772552,19.3716016 26.238986,19.7033203 L31.787465,23.0995703 C31.8517133,23.1296484 32.7220629,23.5172266 32.6783741,24.4341797 L32.6775175,31.2696484 C32.7177797,32.0680078 32.0504545,32.4710547 31.7617657,32.6085547 L26.226993,35.9987891 C25.7652622,36.3313672 25.306958,36.4955078 24.8503671,36.4955078 M24.8323776,17.9562109 C23.947465,17.9562109 23.2227448,18.3257422 22.8698077,18.6419922 L17.1431469,22.0751953 C15.7408217,22.7076953 15.6997028,24.2305078 15.6997028,24.4015234 L15.6997028,31.2902734 C15.6997028,31.4621484 15.7391084,32.9866797 17.1243007,33.6097266 L22.8432517,37.0343359 C23.2116084,37.3634766 23.9568881,37.7390234 24.8495105,37.7390234 C25.5673776,37.7390234 26.2604021,37.5009766 26.9097378,37.0326172 L32.3202972,33.7119922 C32.3605594,33.6973828 33.9941783,32.9961328 33.9145105,31.2309766 L33.9145105,24.4642578 C33.9487762,23.7784766 33.7106294,23.1399609 33.2257692,22.6303516 C32.9233741,22.3106641 32.5644406,22.0906641 32.3742657,22.0116016 L32.3751224,22.0116016 L26.9217308,18.6703516 C26.2706818,18.1994141 25.563951,17.9562109 24.8323776,17.9562109 M24.8503671,36.7103516 C25.282972,36.7103516 25.7909615,36.5788672 26.3392133,36.1818359 L31.8431469,32.8070703 C31.9373776,32.7615234 32.9439336,32.3172266 32.8916783,31.2696484 L32.8916783,24.4453516 C32.9439336,23.3659766 31.9073951,22.9199609 31.8988287,22.9156641 L26.3649126,19.5288672 C25.796958,19.1215234 25.2761189,18.9883203 24.8383741,18.9883203 C24.0425524,18.9883203 23.5182867,19.4274609 23.4848776,19.4566797 L17.6254371,22.9775391 C16.7242483,23.3891797 16.722535,24.3877734 16.722535,24.3980859 L16.722535,31.2937109 C16.722535,31.3366797 16.734528,32.3112109 17.5851748,32.6962109 L23.4266259,36.1973047 C23.4985839,36.2540234 24.0451224,36.7103516 24.8503671,36.7103516 M24.8323776,18.1710547 C25.429458,18.1710547 26.1113462,18.3480859 26.8095105,18.8533984 L32.2629021,22.1946484 C32.2757517,22.1946484 33.7800175,22.8443359 33.7003497,24.4642578 L33.7003497,31.2404297 C33.7731643,32.8551953 32.2723252,33.5014453 32.2080769,33.5280859 L26.7846678,36.8581641 C26.1053497,37.3480078 25.4405944,37.5241797 24.8495105,37.5241797 C24.0005769,37.5241797 23.3066958,37.1615234 22.9529021,36.8504297 L17.212535,33.4137891 C15.9155769,32.8302734 15.9138636,31.3530078 15.9138636,31.2902734 L15.9138636,24.4015234 C15.9138636,24.3413672 15.9155769,22.8649609 17.2527972,22.2591016 L23.0128671,18.8018359 C23.3281119,18.5199609 23.9962937,18.1710547 24.8323776,18.1710547" id="Fill-14" fill="#2D3D66"></path>
                        <path d="M76.7910524,29.6222266 L74.4661224,24.4900391 L74.3958776,24.4900391 L72.1172063,29.6222266 L76.7910524,29.6222266 Z M66.7451958,34.5911328 L73.9778357,18.8912109 C74.0472238,18.7511328 74.1637273,18.6342578 74.3727483,18.6342578 L74.6048986,18.6342578 C74.8379056,18.6342578 74.9304231,18.7511328 75.0006678,18.8912109 L82.1630629,34.5911328 C82.3026958,34.8944922 82.1168042,35.1978516 81.7681503,35.1978516 L79.7439021,35.1978516 C79.3961049,35.1978516 79.2333427,35.0577734 79.0697238,34.7312109 L77.9303881,32.2115234 L70.9778706,32.2115234 L69.838535,34.7312109 C69.7451608,34.9641016 69.5361399,35.1978516 69.1643566,35.1978516 L67.140965,35.1978516 C66.7923112,35.1978516 66.6055629,34.8944922 66.7451958,34.5911328 Z" id="Fill-16" fill="#2D3D66"></path>
                        <path d="M90.5584248,19.4280625 C90.5584248,19.1247031 90.7905752,18.86775 91.1160997,18.86775 L93.1626206,18.86775 C93.4650157,18.86775 93.7202955,19.1247031 93.7202955,19.4280625 L93.7202955,25.7264219 L99.5805927,19.1015 C99.6739668,18.984625 99.8135997,18.86775 100.022621,18.86775 L102.348407,18.86775 C102.789579,18.86775 103.022586,19.3575937 102.719334,19.7082188 L96.6500157,26.5660313 L103.161362,34.3811875 C103.393512,34.6845469 103.208477,35.1975938 102.74332,35.1975938 L100.208512,35.1975938 C99.9755052,35.1975938 99.8358724,35.1047813 99.7896136,35.0343125 L93.7202955,27.5225156 L93.7202955,34.6381406 C93.7202955,34.9406406 93.4650157,35.1975938 93.1626206,35.1975938 L91.1160997,35.1975938 C90.7905752,35.1975938 90.5584248,34.9406406 90.5584248,34.6381406 L90.5584248,19.4280625 Z" id="Fill-18" fill="#2D3D66"></path>
                        <path d="M118.836822,26.3097656 C120.068675,26.3097656 121.139479,25.2364062 121.139479,23.9301563 C121.139479,22.6935156 120.068675,21.6674219 118.836822,21.6674219 L115.046175,21.6674219 L115.046175,26.3097656 L118.836822,26.3097656 Z M112.000808,19.3110156 C112.000808,19.078125 112.185843,18.8675781 112.441979,18.8675781 L119.092958,18.8675781 C121.883045,18.8675781 124.161717,21.1071094 124.161717,23.88375 C124.161717,26.0296094 122.743972,27.7792969 120.719724,28.5957031 L123.906437,34.5210937 C124.068343,34.8244531 123.906437,35.1974219 123.510668,35.1974219 L121.068378,35.1974219 C120.859357,35.1974219 120.74371,35.0814063 120.697451,34.9877344 L117.604969,28.8053906 L115.023045,28.8053906 L115.023045,34.7548437 C115.023045,34.9877344 114.814024,35.1974219 114.581017,35.1974219 L112.441979,35.1974219 C112.185843,35.1974219 112.000808,34.9877344 112.000808,34.7548437 L112.000808,19.3110156 Z" id="Fill-20" fill="#2D3D66"></path>
                        <path d="M140.951498,32.3984375 C143.881219,32.3984375 146.299523,29.995625 146.299523,27.0565625 C146.299523,24.1166406 143.881219,21.6674219 140.951498,21.6674219 C138.020921,21.6674219 135.625747,24.1166406 135.625747,27.0565625 C135.625747,29.995625 138.020921,32.3984375 140.951498,32.3984375 M140.951498,18.6346875 C145.602215,18.6346875 149.322617,22.3901563 149.322617,27.0565625 C149.322617,31.7221094 145.602215,35.4311719 140.951498,35.4311719 C136.299925,35.4311719 132.603509,31.7221094 132.603509,27.0565625 C132.603509,22.3901563 136.299925,18.6346875 140.951498,18.6346875" id="Fill-22" fill="#2D3D66"></path>
                        <path d="M164.369472,26.4263828 C165.67157,26.4263828 166.764647,25.3762266 166.764647,24.0003672 C166.764647,22.7173203 165.67157,21.7367734 164.369472,21.7367734 L161.671902,21.7367734 L161.671902,26.4263828 L164.369472,26.4263828 Z M158.648808,19.3116172 C158.648808,19.0778672 158.834699,18.8681797 159.090836,18.8681797 L164.555364,18.8681797 C167.415696,18.8681797 169.763755,21.2005234 169.763755,24.0235703 C169.763755,26.9162266 167.415696,29.2726328 164.578493,29.2726328 L161.671902,29.2726328 L161.671902,34.7545859 C161.671902,34.9874766 161.462024,35.1980234 161.229874,35.1980234 L159.090836,35.1980234 C158.834699,35.1980234 158.648808,34.9874766 158.648808,34.7545859 L158.648808,19.3116172 Z" id="Fill-24" fill="#2D3D66"></path>
                        <path d="M185.880044,32.3984375 C188.809764,32.3984375 191.228068,29.995625 191.228068,27.0565625 C191.228068,24.1166406 188.809764,21.6674219 185.880044,21.6674219 C182.949467,21.6674219 180.554292,24.1166406 180.554292,27.0565625 C180.554292,29.995625 182.949467,32.3984375 185.880044,32.3984375 M185.880044,18.6346875 C190.53076,18.6346875 194.251163,22.3901563 194.251163,27.0565625 C194.251163,31.7221094 190.53076,35.4311719 185.880044,35.4311719 C181.22847,35.4311719 177.532054,31.7221094 177.532054,27.0565625 C177.532054,22.3901563 181.22847,18.6346875 185.880044,18.6346875" id="Fill-26" fill="#2D3D66"></path>
                        <path d="M203.576753,19.3113594 C203.576753,19.0784687 203.762645,18.8679219 204.018781,18.8679219 L206.15782,18.8679219 C206.38997,18.8679219 206.598991,19.0784687 206.598991,19.3113594 L206.598991,32.3987812 L212.528677,32.3987812 C212.784813,32.3987812 212.970705,32.6084688 212.970705,32.8413594 L212.970705,34.7543281 C212.970705,34.9880781 212.784813,35.1977656 212.528677,35.1977656 L204.018781,35.1977656 C203.762645,35.1977656 203.576753,34.9880781 203.576753,34.7543281 L203.576753,19.3113594 Z" id="Fill-28" fill="#2D3D66"></path>
                        <path d="M221.599759,19.3113594 C221.599759,19.0784687 221.80878,18.8679219 222.041787,18.8679219 L224.203955,18.8679219 C224.436962,18.8679219 224.645983,19.0784687 224.645983,19.3113594 L224.645983,34.7543281 C224.645983,34.9880781 224.436962,35.1977656 224.203955,35.1977656 L222.041787,35.1977656 C221.80878,35.1977656 221.599759,34.9880781 221.599759,34.7543281 L221.599759,19.3113594 Z" id="Fill-30" fill="#2D3D66"></path>
                        <g id="Group-34" transform="translate(233.863636, 17.890984)">
                            <mask id="mask-4" fill="white">
                                <use xlink:href="#path-3"></use>
                            </mask>
                            <g id="Clip-33"></g>
                            <path d="M0.33983042,15.0205859 L1.17762762,13.5742578 C1.36266259,13.2476953 1.75757517,13.2476953 1.9674528,13.4109766 C2.08395629,13.4805859 3.96685839,14.8573047 5.47883392,14.8573047 C6.68755769,14.8573047 7.59474301,14.0641016 7.59474301,13.0612109 C7.59474301,11.8709766 6.59504021,11.0545703 4.64103671,10.2613672 C2.45573951,9.37535156 0.269585664,7.97542969 0.269585664,5.22285156 C0.269585664,3.14660156 1.80469056,0.743789062 5.50196329,0.743789062 C7.87400874,0.743789062 9.68752273,1.95636719 10.1526801,2.30699219 C10.3856871,2.44707031 10.4550752,2.84324219 10.2923129,3.07699219 L9.40911364,4.40644531 C9.22236538,4.68660156 8.87371154,4.87308594 8.59530245,4.68660156 C8.4085542,4.56972656 6.64129895,3.40269531 5.36233042,3.40269531 C4.03710315,3.40269531 3.31666608,4.28957031 3.31666608,5.03636719 C3.31666608,6.13292969 4.17673601,6.87886719 6.06049476,7.64886719 C8.31603671,8.55808594 10.9202325,9.91160156 10.9202325,12.9211328 C10.9202325,15.3239453 8.85058217,17.5402734 5.5713514,17.5402734 C2.64248776,17.5402734 0.921491259,16.1635547 0.456333916,15.7201172 C0.247312937,15.5104297 0.130809441,15.3935547 0.33983042,15.0205859" id="Fill-32" fill="#2D3D66" mask="url(#mask-4)"></path>
                        </g>
                    </g>
                </g>
            </g>
        </g>
    </g>
</svg>