<?xml version="1.0" encoding="utf-8"?>
<!-- Generator: Adobe Illustrator 19.0.0, SVG Export Plug-In . SVG Version: 6.00 Build 0)  -->
<svg version="1.1" id="Layer_1" xmlns="http://www.w3.org/2000/svg" xmlns:xlink="http://www.w3.org/1999/xlink" x="0px" y="0px"
	 viewBox="0 0 306.6 71.6" style="enable-background:new 0 0 306.6 71.6;" xml:space="preserve">
<style type="text/css">
	.st0{fill:none;stroke:#2D3D66;stroke-miterlimit:10;}
	.st1{fill:#2D3D66;}
	.st2{fill:url(#SVGID_1_);}
	.st3{fill:url(#SVGID_2_);}
</style>
<line class="st0" x1="-1560.1" y1="255.6" x2="-1560.1" y2="921.6"/>
<g>
	<g>
		<g>
			<path class="st1" d="M114.7,24.3c0-0.4,0.3-0.8,0.8-0.8h3c0.4,0,0.8,0.4,0.8,0.8v22.1c0,0.4-0.4,0.8-0.8,0.8h-3
				c-0.5,0-0.8-0.4-0.8-0.8V24.3z"/>
		</g>
		<g>
			<path class="st1" d="M130.6,23.8c0.1-0.2,0.3-0.3,0.6-0.3h3.4c0.6,0,1,0.7,0.5,1.2l-8.2,9.2c-0.4,0.5-0.4,1.1,0,1.6l8.8,10.6
				c0.3,0.4,0.1,1.2-0.6,1.2h-3.7c-0.3,0-0.5-0.1-0.6-0.2l-9.1-11.2c-0.5-0.7-0.5-1.6,0.1-2.2L130.6,23.8z"/>
		</g>
		<g>
			<path class="st1" d="M178.2,23.2c6.8,0,12.2,5.5,12.2,12.3s-5.4,12.2-12.2,12.2c-6.8,0-12.2-5.4-12.2-12.2S171.4,23.2,178.2,23.2
				z M178.2,43.2c4.3,0,7.8-3.5,7.8-7.8s-3.5-7.8-7.8-7.8c-4.3,0-7.8,3.6-7.8,7.8S174,43.2,178.2,43.2z"/>
		</g>
		<g>
			<path class="st1" d="M232.3,23.2c6.8,0,12.2,5.5,12.2,12.3s-5.4,12.2-12.2,12.2c-6.8,0-12.2-5.4-12.2-12.2S225.5,23.2,232.3,23.2
				z M232.3,43.2c4.3,0,7.8-3.5,7.8-7.8s-3.5-7.8-7.8-7.8c-4.3,0-7.8,3.6-7.8,7.8S228,43.2,232.3,43.2z"/>
		</g>
		<g>
			<path class="st1" d="M252.3,24.1c0-0.3,0.3-0.6,0.6-0.6h3.1c0.3,0,0.6,0.3,0.6,0.6v19h8.7c0.4,0,0.6,0.3,0.6,0.6v2.8
				c0,0.3-0.3,0.6-0.6,0.6H253c-0.4,0-0.6-0.3-0.6-0.6V24.1z"/>
		</g>
		<g>
			<path class="st1" d="M275.8,24.1c0-0.3,0.3-0.6,0.6-0.6h3.2c0.3,0,0.6,0.3,0.6,0.6v22.5c0,0.3-0.3,0.6-0.6,0.6h-3.2
				c-0.3,0-0.6-0.3-0.6-0.6V24.1z"/>
		</g>
		<g>
			<path class="st1" d="M291.1,43.9l1.2-2.1c0.3-0.5,0.8-0.5,1.2-0.2c0.2,0.1,2.9,2.1,5.1,2.1c1.8,0,3.1-1.2,3.1-2.6
				c0-1.7-1.5-2.9-4.3-4.1c-3.2-1.3-6.4-3.3-6.4-7.3c0-3,2.2-6.5,7.6-6.5c3.5,0,6.1,1.8,6.8,2.3c0.3,0.2,0.4,0.8,0.2,1.1l-1.3,1.9
				c-0.3,0.4-0.8,0.7-1.2,0.4c-0.3-0.2-2.9-1.9-4.7-1.9c-1.9,0-3,1.3-3,2.4c0,1.6,1.3,2.7,4,3.8c3.3,1.3,7.1,3.3,7.1,7.7
				c0,3.5-3,6.7-7.8,6.7c-4.3,0-6.8-2-7.5-2.6C291,44.6,290.8,44.5,291.1,43.9z"/>
		</g>
		<g>
			<path class="st1" d="M108.2,46.4L97.8,23.5c-0.1-0.2-0.2-0.4-0.6-0.4h-0.3c-0.3,0-0.5,0.2-0.6,0.4L85.7,46.4
				c-0.2,0.4,0.1,0.9,0.6,0.9h3c0.5,0,0.8-0.3,1-0.7l1.7-3.7l1.7-3.8l3.3-7.5H97l3.2,7c0.1,0.3,0,0.6-0.2,0.8l-3.7,2.8
				c-0.3,0.2-0.1,0.6,0.2,0.6h5.2c0.3,0,0.5,0.1,0.6,0.4l1.5,3.3c0.2,0.5,0.5,0.7,1,0.7h3C108.2,47.3,108.4,46.8,108.2,46.4z"/>
		</g>
		<g>
			<g>
				<path class="st1" d="M155.9,39.9h-3.6c-0.3,0-0.4,0.3-0.3,0.5l3.3,6.6c0.1,0.1,0.2,0.3,0.5,0.3h3.6c0.6,0,0.8-0.5,0.6-1l-3-5.7
					C156.8,40.2,156.3,39.9,155.9,39.9z"/>
			</g>
			<g>
				<path class="st1" d="M155.4,37.7c3.1-0.7,5-3.7,5-6.9c0-4-3.3-7.3-7.4-7.3h-9.7c-0.4,0-0.6,0.3-0.6,0.6v22.5
					c0,0.3,0.3,0.6,0.6,0.6h3.1c0.3,0,0.6-0.3,0.6-0.6V38h3.8C150.8,38,154.3,37.9,155.4,37.7z M147.1,27.6h5.5
					c1.8,0,3.4,1.5,3.4,3.3c0,1.9-1.6,3.5-3.4,3.5h-5.5V27.6z"/>
			</g>
		</g>
		<g>
			<g>
				<path class="st1" d="M210,37.7c3.1-0.7,5-3.7,5-6.9c0-4-3.3-7.3-7.4-7.3h-9.7c-0.4,0-0.6,0.3-0.6,0.6v22.5
					c0,0.3,0.3,0.6,0.6,0.6h3.1c0.3,0,0.6-0.3,0.6-0.6V38h3.8C205.4,38,208.9,37.9,210,37.7z M201.7,27.6h5.5c1.8,0,3.4,1.5,3.4,3.3
					c0,1.9-1.6,3.5-3.4,3.5h-5.5V27.6z"/>
			</g>
		</g>
	</g>
	<g>
		<g>
			<path class="st1" d="M32.3,71.6c-1.7,0-3.5-0.4-5-1.3L5,57.4c-3.1-1.8-5-5.1-5-8.7V22.9c0-3.6,1.9-6.9,5-8.7L27.3,1.3
				c3.1-1.8,7-1.8,10.1,0l22.3,12.9c3.1,1.8,5,5.1,5,8.7v25.7c0,3.6-1.9,6.9-5,8.7L37.4,70.2C35.8,71.1,34.1,71.6,32.3,71.6z
				 M32.3,3.5c-1.1,0-2.3,0.3-3.3,0.9L6.8,17.2c-2,1.2-3.3,3.3-3.3,5.7v25.7c0,2.3,1.3,4.5,3.3,5.7l22.3,12.9c2,1.2,4.5,1.2,6.6,0
				l22.3-12.9c2-1.2,3.3-3.3,3.3-5.7V22.9c0-2.3-1.3-4.5-3.3-5.7L35.6,4.4C34.6,3.8,33.5,3.5,32.3,3.5z"/>
		</g>
		<g>
			<path class="st1" d="M32.3,59.9c-0.9,0-1.9-0.2-2.7-0.7l-16.2-9.3c-1.7-1-2.7-2.8-2.7-4.7V26.4c0-1.9,1-3.7,2.7-4.7l16.2-9.3
				c1.7-1,3.8-1,5.4,0l16.2,9.3c1.7,1,2.7,2.8,2.7,4.7v18.7c0,1.9-1,3.7-2.7,4.7l-16.2,9.3C34.2,59.7,33.3,59.9,32.3,59.9z
				 M32.3,14.3c-0.5,0-1,0.1-1.4,0.4L14.8,24c-0.9,0.5-1.4,1.4-1.4,2.4v18.7c0,1,0.5,1.9,1.4,2.4l16.2,9.3c0.9,0.5,1.9,0.5,2.8,0
				l16.2-9.3c0.9-0.5,1.4-1.4,1.4-2.4V26.4c0-1-0.5-1.9-1.4-2.4l-16.2-9.3C33.3,14.4,32.8,14.3,32.3,14.3z"/>
		</g>
		<g>
			<path class="st1" d="M32.3,48.1c-0.5,0-1-0.1-1.4-0.4l-8.2-4.7c-0.9-0.5-1.4-1.4-1.4-2.4V31c0-1,0.5-1.9,1.4-2.4l8.2-4.7
				c0.9-0.5,1.9-0.5,2.8,0l8.2,4.7c0.9,0.5,1.4,1.4,1.4,2.4v9.5c0,1-0.5,1.9-1.4,2.4l-8.2,4.7C33.3,47.9,32.8,48.1,32.3,48.1z
				 M32.3,25.3c-0.2,0-0.4,0-0.5,0.1l-8.2,4.7c-0.3,0.2-0.5,0.5-0.5,0.9v9.5c0,0.4,0.2,0.7,0.5,0.9l8.2,4.7c0.3,0.2,0.7,0.2,1,0
				l8.2-4.7c0.3-0.2,0.5-0.5,0.5-0.9V31c0-0.4-0.2-0.7-0.5-0.9l-8.2-4.7C32.7,25.3,32.5,25.3,32.3,25.3z"/>
		</g>
	</g>
</g>
<g>
	<g>
		<g>
			<path class="st1" d="M-303.1,1089.4c0-0.4,0.3-0.7,0.7-0.7h2.6c0.4,0,0.7,0.3,0.7,0.7v19.5c0,0.4-0.3,0.7-0.7,0.7h-2.6
				c-0.4,0-0.7-0.3-0.7-0.7V1089.4z"/>
		</g>
		<g>
			<path class="st1" d="M-289.1,1089c0.1-0.2,0.3-0.3,0.6-0.3h3c0.6,0,0.9,0.6,0.5,1.1l-7.2,8.1c-0.4,0.4-0.4,1,0,1.4l7.8,9.3
				c0.3,0.4,0.1,1-0.5,1h-3.3c-0.3,0-0.5-0.1-0.5-0.2l-8.1-9.9c-0.5-0.6-0.5-1.4,0-2L-289.1,1089z"/>
		</g>
		<g>
			<path class="st1" d="M-247,1088.4c6,0,10.8,4.8,10.8,10.8c0,6-4.8,10.8-10.8,10.8c-6,0-10.8-4.8-10.8-10.8
				C-257.8,1093.2-253,1088.4-247,1088.4z M-247,1106c3.8,0,6.9-3.1,6.9-6.9c0-3.8-3.1-6.9-6.9-6.9c-3.8,0-6.9,3.1-6.9,6.9
				C-253.9,1103-250.8,1106-247,1106z"/>
		</g>
		<g>
			<path class="st1" d="M-199.3,1088.4c6,0,10.8,4.8,10.8,10.8c0,6-4.8,10.8-10.8,10.8c-6,0-10.8-4.8-10.8-10.8
				C-210.1,1093.2-205.3,1088.4-199.3,1088.4z M-199.3,1106c3.8,0,6.9-3.1,6.9-6.9c0-3.8-3.1-6.9-6.9-6.9c-3.8,0-6.9,3.1-6.9,6.9
				C-206.2,1103-203.1,1106-199.3,1106z"/>
		</g>
		<g>
			<path class="st1" d="M-181.6,1089.2c0-0.3,0.2-0.6,0.6-0.6h2.8c0.3,0,0.6,0.3,0.6,0.6v16.8h7.6c0.3,0,0.6,0.3,0.6,0.6v2.5
				c0,0.3-0.2,0.6-0.6,0.6h-11c-0.3,0-0.6-0.3-0.6-0.6V1089.2z"/>
		</g>
		<g>
			<path class="st1" d="M-160.9,1089.2c0-0.3,0.3-0.6,0.6-0.6h2.8c0.3,0,0.6,0.3,0.6,0.6v19.8c0,0.3-0.3,0.6-0.6,0.6h-2.8
				c-0.3,0-0.6-0.3-0.6-0.6V1089.2z"/>
		</g>
		<g>
			<path class="st1" d="M-147.4,1106.7l1.1-1.9c0.2-0.4,0.7-0.4,1-0.2c0.1,0.1,2.6,1.9,4.5,1.9c1.6,0,2.7-1,2.7-2.3
				c0-1.5-1.3-2.6-3.8-3.6c-2.8-1.1-5.6-2.9-5.6-6.5c0-2.7,2-5.8,6.7-5.8c3.1,0,5.4,1.6,6,2c0.3,0.2,0.4,0.7,0.2,1l-1.1,1.7
				c-0.2,0.4-0.7,0.6-1,0.4c-0.2-0.1-2.5-1.6-4.2-1.6c-1.7,0-2.6,1.1-2.6,2.1c0,1.4,1.1,2.4,3.5,3.4c2.9,1.2,6.3,2.9,6.3,6.8
				c0,3.1-2.7,5.9-6.9,5.9c-3.8,0-6-1.8-6.6-2.3C-147.5,1107.3-147.6,1107.2-147.4,1106.7z"/>
		</g>
		<g>
			<path class="st1" d="M-308.9,1108.9l-9.2-20.2c-0.1-0.2-0.2-0.3-0.5-0.3h-0.3c-0.3,0-0.4,0.1-0.5,0.3l-9.3,20.2
				c-0.2,0.4,0.1,0.8,0.5,0.8h2.6c0.5,0,0.7-0.3,0.9-0.6l1.5-3.2l1.5-3.3l2.9-6.6h0.1l2.8,6.2c0.1,0.2,0,0.5-0.2,0.7l-3.3,2.5
				c-0.2,0.2-0.1,0.6,0.2,0.6h4.6c0.2,0,0.4,0.1,0.5,0.3l1.3,2.9c0.2,0.4,0.4,0.6,0.9,0.6h2.6
				C-308.9,1109.6-308.7,1109.3-308.9,1108.9z"/>
		</g>
		<g>
			<g>
				<path class="st1" d="M-266.8,1103.1h-3.2c-0.2,0-0.4,0.2-0.3,0.4l2.9,5.8c0.1,0.1,0.2,0.3,0.5,0.3h3.1c0.5,0,0.7-0.5,0.5-0.9
					l-2.7-5C-266,1103.4-266.4,1103.1-266.8,1103.1z"/>
			</g>
			<g>
				<path class="st1" d="M-267.2,1101.2c2.7-0.6,4.4-3.3,4.4-6.1c0-3.6-2.9-6.4-6.5-6.4h-8.6c-0.3,0-0.6,0.3-0.6,0.6v19.8
					c0,0.3,0.2,0.6,0.6,0.6h2.8c0.3,0,0.6-0.3,0.6-0.6v-7.6h3.3C-271.3,1101.4-268.2,1101.4-267.2,1101.2z M-274.6,1092.3h4.9
					c1.6,0,3,1.3,3,2.9c0,1.7-1.4,3.1-3,3.1h-4.9V1092.3z"/>
			</g>
		</g>
		<g>
			<g>
				<path class="st1" d="M-219,1101.2c2.7-0.6,4.4-3.3,4.4-6.1c0-3.6-2.9-6.4-6.5-6.4h-8.6c-0.3,0-0.6,0.3-0.6,0.6v19.8
					c0,0.3,0.2,0.6,0.6,0.6h2.8c0.3,0,0.6-0.3,0.6-0.6v-7.6h3.3C-223,1101.4-220,1101.4-219,1101.2z M-226.3,1092.3h4.9
					c1.6,0,3,1.3,3,2.9c0,1.7-1.4,3.1-3,3.1h-4.9V1092.3z"/>
			</g>
		</g>
	</g>
	<g>
		<g>
			<path class="st1" d="M-231.3,1056.9c-4,0-8-1-11.5-3.1l-51.1-29.5c-7.1-4.1-11.5-11.8-11.5-20v-59.1c0-8.2,4.4-15.9,11.5-20
				l51.1-29.5c7.1-4.1,16-4.1,23.1,0l51.1,29.5c7.1,4.1,11.5,11.8,11.5,20v59.1c0,8.2-4.4,15.9-11.5,20l-51.1,29.5
				C-223.3,1055.9-227.3,1056.9-231.3,1056.9z M-231.3,900.7c-2.6,0-5.2,0.7-7.5,2l-51.1,29.5c-4.6,2.7-7.5,7.7-7.5,13v59.1
				c0,5.4,2.9,10.4,7.5,13.1l51.1,29.5c4.6,2.7,10.4,2.7,15.1,0l51.1-29.5c4.6-2.7,7.5-7.7,7.5-13v-59.1c0-5.4-2.9-10.4-7.5-13
				l-51.1-29.5C-226,901.4-228.7,900.7-231.3,900.7z"/>
		</g>
		<g>
			<path class="st1" d="M-231.3,1030.1c-2.2,0-4.3-0.6-6.2-1.7l-37.1-21.4c-3.8-2.2-6.2-6.3-6.2-10.8v-42.9c0-4.4,2.4-8.6,6.2-10.8
				l37.1-21.4c3.8-2.2,8.6-2.2,12.4,0l37.1,21.4c3.8,2.2,6.2,6.4,6.2,10.8v42.9c0,4.4-2.4,8.6-6.2,10.8l-37.1,21.4
				C-227,1029.6-229.1,1030.1-231.3,1030.1z M-231.3,925.5c-1.1,0-2.2,0.3-3.2,0.9l-37.1,21.4c-2,1.1-3.2,3.3-3.2,5.6v42.9
				c0,2.3,1.2,4.4,3.2,5.6l37.1,21.4c2,1.1,4.5,1.1,6.4,0l37.1-21.4c2-1.1,3.2-3.3,3.2-5.6v-42.9c0-2.3-1.2-4.4-3.2-5.6l-37.1-21.4
				C-229,925.8-230.1,925.5-231.3,925.5z"/>
		</g>
		<g>
			<path class="st1" d="M-231.3,1003c-1.1,0-2.2-0.3-3.2-0.9l-18.8-10.9c-2-1.1-3.2-3.3-3.2-5.5v-21.8c0-2.3,1.2-4.4,3.2-5.5
				l18.8-10.9c2-1.1,4.4-1.1,6.4,0l18.8,10.9c2,1.1,3.2,3.3,3.2,5.5v21.8c0,2.3-1.2,4.4-3.2,5.5l-18.8,10.9
				C-229,1002.7-230.2,1003-231.3,1003z M-231.3,950.7c-0.4,0-0.8,0.1-1.2,0.3l-18.8,10.9c-0.7,0.4-1.2,1.2-1.2,2.1v21.8
				c0,0.8,0.5,1.6,1.2,2.1l18.8,10.9c0.7,0.4,1.6,0.4,2.4,0l18.8-10.9c0.7-0.4,1.2-1.2,1.2-2.1v-21.8c0-0.8-0.5-1.6-1.2-2.1
				l-18.8-10.9C-230.4,950.8-230.8,950.7-231.3,950.7z"/>
		</g>
	</g>
</g>
<g>
	<g>
		<g>
			<path class="st1" d="M137,282.1c0-0.4,0.3-0.8,0.8-0.8h3c0.4,0,0.8,0.4,0.8,0.8v22.1c0,0.4-0.4,0.8-0.8,0.8h-3
				c-0.5,0-0.8-0.4-0.8-0.8V282.1z"/>
		</g>
		<g>
			<path class="st1" d="M152.9,281.6c0.1-0.2,0.3-0.3,0.6-0.3h3.4c0.6,0,1,0.7,0.5,1.2l-8.2,9.2c-0.4,0.5-0.4,1.1,0,1.6l8.8,10.6
				c0.3,0.4,0.1,1.2-0.6,1.2h-3.7c-0.3,0-0.5-0.1-0.6-0.2l-9.1-11.2c-0.5-0.7-0.5-1.6,0.1-2.2L152.9,281.6z"/>
		</g>
		<g>
			<path class="st1" d="M200.5,280.9c6.8,0,12.2,5.5,12.2,12.3c0,6.8-5.4,12.2-12.2,12.2c-6.8,0-12.2-5.4-12.2-12.2
				C188.3,286.4,193.7,280.9,200.5,280.9z M200.5,301c4.3,0,7.8-3.5,7.8-7.8s-3.5-7.8-7.8-7.8c-4.3,0-7.8,3.6-7.8,7.8
				S196.2,301,200.5,301z"/>
		</g>
		<g>
			<path class="st1" d="M254.6,280.9c6.8,0,12.2,5.5,12.2,12.3c0,6.8-5.4,12.2-12.2,12.2c-6.8,0-12.2-5.4-12.2-12.2
				C242.4,286.4,247.8,280.9,254.6,280.9z M254.6,301c4.3,0,7.8-3.5,7.8-7.8s-3.5-7.8-7.8-7.8c-4.3,0-7.8,3.6-7.8,7.8
				S250.3,301,254.6,301z"/>
		</g>
		<g>
			<path class="st1" d="M274.6,281.9c0-0.3,0.3-0.6,0.6-0.6h3.1c0.3,0,0.6,0.3,0.6,0.6v19h8.7c0.4,0,0.6,0.3,0.6,0.6v2.8
				c0,0.3-0.3,0.6-0.6,0.6h-12.4c-0.4,0-0.6-0.3-0.6-0.6V281.9z"/>
		</g>
		<g>
			<path class="st1" d="M298.1,281.9c0-0.3,0.3-0.6,0.6-0.6h3.2c0.3,0,0.6,0.3,0.6,0.6v22.5c0,0.3-0.3,0.6-0.6,0.6h-3.2
				c-0.3,0-0.6-0.3-0.6-0.6V281.9z"/>
		</g>
		<g>
			<path class="st1" d="M313.4,301.7l1.2-2.1c0.3-0.5,0.8-0.5,1.2-0.2c0.2,0.1,2.9,2.1,5.1,2.1c1.8,0,3.1-1.2,3.1-2.6
				c0-1.7-1.5-2.9-4.3-4.1c-3.2-1.3-6.4-3.3-6.4-7.3c0-3,2.2-6.5,7.6-6.5c3.5,0,6.1,1.8,6.8,2.3c0.3,0.2,0.4,0.8,0.2,1.1l-1.3,1.9
				c-0.3,0.4-0.8,0.7-1.2,0.4c-0.3-0.2-2.9-1.9-4.7-1.9c-1.9,0-3,1.3-3,2.4c0,1.6,1.3,2.7,4,3.8c3.3,1.3,7.1,3.3,7.1,7.7
				c0,3.5-3,6.7-7.8,6.7c-4.3,0-6.8-2-7.5-2.6C313.3,302.4,313.1,302.3,313.4,301.7z"/>
		</g>
		<g>
			<path class="st1" d="M130.5,304.2l-10.5-22.8c-0.1-0.2-0.2-0.4-0.6-0.4h-0.3c-0.3,0-0.5,0.2-0.6,0.4L108,304.2
				c-0.2,0.4,0.1,0.9,0.6,0.9h3c0.5,0,0.8-0.3,1-0.7l1.7-3.7l1.7-3.8l3.3-7.5h0.1l3.2,7c0.1,0.3,0,0.6-0.2,0.8l-3.7,2.8
				c-0.3,0.2-0.1,0.6,0.2,0.6h5.2c0.3,0,0.5,0.1,0.6,0.4l1.5,3.3c0.2,0.5,0.5,0.7,1,0.7h3C130.4,305.1,130.7,304.6,130.5,304.2z"/>
		</g>
		<g>
			<g>
				<path class="st1" d="M178.2,297.7h-3.6c-0.3,0-0.4,0.3-0.3,0.5l3.3,6.6c0.1,0.1,0.2,0.3,0.5,0.3h3.6c0.6,0,0.8-0.5,0.6-1l-3-5.7
					C179.1,298,178.6,297.7,178.2,297.7z"/>
			</g>
			<g>
				<path class="st1" d="M177.6,295.4c3.1-0.7,5-3.7,5-6.9c0-4-3.3-7.3-7.4-7.3h-9.7c-0.4,0-0.6,0.3-0.6,0.6v22.5
					c0,0.3,0.3,0.6,0.6,0.6h3.1c0.3,0,0.6-0.3,0.6-0.6v-8.7h3.8C173.1,295.8,176.5,295.7,177.6,295.4z M169.4,285.4h5.5
					c1.8,0,3.4,1.5,3.4,3.3c0,1.9-1.6,3.5-3.4,3.5h-5.5V285.4z"/>
			</g>
		</g>
		<g>
			<g>
				<path class="st1" d="M232.3,295.4c3.1-0.7,5-3.7,5-6.9c0-4-3.3-7.3-7.4-7.3h-9.7c-0.4,0-0.6,0.3-0.6,0.6v22.5
					c0,0.3,0.3,0.6,0.6,0.6h3.1c0.3,0,0.6-0.3,0.6-0.6v-8.7h3.8C227.7,295.8,231.2,295.7,232.3,295.4z M224,285.4h5.5
					c1.8,0,3.4,1.5,3.4,3.3c0,1.9-1.6,3.5-3.4,3.5H224V285.4z"/>
			</g>
		</g>
	</g>
	<linearGradient id="SVGID_1_" gradientUnits="userSpaceOnUse" x1="22.2782" y1="293.5799" x2="86.9686" y2="293.5799">
		<stop  offset="0" style="stop-color:#E168FD"/>
		<stop  offset="1" style="stop-color:#7B00FC"/>
	</linearGradient>
	<path class="st2" d="M54.6,329.4c-1.7,0-3.5-0.4-5-1.3l-22.3-12.9c-3.1-1.8-5-5.1-5-8.7v-25.7c0-3.6,1.9-6.9,5-8.7l22.3-12.9
		c3.1-1.8,7-1.8,10.1,0L81.9,272c3.1,1.8,5,5.1,5,8.7v25.7c0,3.6-1.9,6.9-5,8.7L59.7,328C58.1,328.9,56.4,329.4,54.6,329.4z
		 M54.6,261.3c-1.1,0-2.3,0.3-3.3,0.9L29.1,275c-2,1.2-3.3,3.3-3.3,5.7v25.7c0,2.3,1.3,4.5,3.3,5.7L51.3,325c2,1.2,4.5,1.2,6.6,0
		l22.3-12.9c2-1.2,3.3-3.3,3.3-5.7v-25.7c0-2.3-1.3-4.5-3.3-5.7l-22.3-12.9C56.9,261.6,55.8,261.3,54.6,261.3z M54.6,317.7
		c-0.9,0-1.9-0.2-2.7-0.7l-16.2-9.3c-1.7-1-2.7-2.8-2.7-4.7v-18.7c0-1.9,1-3.7,2.7-4.7l16.2-9.3c1.7-1,3.8-1,5.4,0l16.2,9.3
		c1.7,1,2.7,2.8,2.7,4.7v18.7c0,1.9-1,3.7-2.7,4.7L57.3,317C56.5,317.5,55.6,317.7,54.6,317.7z M54.6,272.1c-0.5,0-1,0.1-1.4,0.4
		L37,281.8c-0.9,0.5-1.4,1.4-1.4,2.4v18.7c0,1,0.5,1.9,1.4,2.4l16.2,9.3c0.9,0.5,1.9,0.5,2.8,0l16.2-9.3c0.9-0.5,1.4-1.4,1.4-2.4
		v-18.7c0-1-0.5-1.9-1.4-2.4L56,272.5C55.6,272.2,55.1,272.1,54.6,272.1z M54.6,305.8c-0.5,0-1-0.1-1.4-0.4l-8.2-4.7
		c-0.9-0.5-1.4-1.4-1.4-2.4v-9.5c0-1,0.5-1.9,1.4-2.4l8.2-4.7c0.9-0.5,1.9-0.5,2.8,0l8.2,4.7c0.9,0.5,1.4,1.4,1.4,2.4v9.5
		c0,1-0.5,1.9-1.4,2.4l-8.2,4.7C55.6,305.7,55.1,305.8,54.6,305.8z M54.6,283.1c-0.2,0-0.4,0-0.5,0.1l-8.2,4.7
		c-0.3,0.2-0.5,0.5-0.5,0.9v9.5c0,0.4,0.2,0.7,0.5,0.9l8.2,4.7c0.3,0.2,0.7,0.2,1,0l8.2-4.7c0.3-0.2,0.5-0.5,0.5-0.9v-9.5
		c0-0.4-0.2-0.7-0.5-0.9l-8.2-4.7C55,283.1,54.8,283.1,54.6,283.1z"/>
</g>
<g>
	<g>
		<g>
			<path class="st1" d="M-2051.4,820.5c0-0.4,0.3-0.7,0.7-0.7h2.6c0.4,0,0.7,0.3,0.7,0.7v19.5c0,0.4-0.3,0.7-0.7,0.7h-2.6
				c-0.4,0-0.7-0.3-0.7-0.7V820.5z"/>
		</g>
		<g>
			<path class="st1" d="M-2037.4,820.1c0.1-0.2,0.3-0.3,0.6-0.3h3c0.6,0,0.9,0.6,0.5,1.1l-7.2,8.1c-0.4,0.4-0.4,1,0,1.4l7.8,9.3
				c0.3,0.4,0.1,1-0.5,1h-3.3c-0.3,0-0.5-0.1-0.5-0.2l-8.1-9.9c-0.5-0.6-0.5-1.4,0-2L-2037.4,820.1z"/>
		</g>
		<g>
			<path class="st1" d="M-1995.3,819.5c6,0,10.8,4.8,10.8,10.8s-4.8,10.8-10.8,10.8c-6,0-10.8-4.8-10.8-10.8
				S-2001.3,819.5-1995.3,819.5z M-1995.3,837.2c3.8,0,6.9-3.1,6.9-6.9s-3.1-6.9-6.9-6.9c-3.8,0-6.9,3.1-6.9,6.9
				S-1999.1,837.2-1995.3,837.2z"/>
		</g>
		<g>
			<path class="st1" d="M-1947.6,819.5c6,0,10.8,4.8,10.8,10.8s-4.8,10.8-10.8,10.8c-6,0-10.8-4.8-10.8-10.8
				S-1953.6,819.5-1947.6,819.5z M-1947.6,837.2c3.8,0,6.9-3.1,6.9-6.9s-3.1-6.9-6.9-6.9c-3.8,0-6.9,3.1-6.9,6.9
				S-1951.4,837.2-1947.6,837.2z"/>
		</g>
		<g>
			<path class="st1" d="M-1929.9,820.4c0-0.3,0.2-0.6,0.6-0.6h2.8c0.3,0,0.6,0.3,0.6,0.6v16.8h7.6c0.3,0,0.6,0.3,0.6,0.6v2.5
				c0,0.3-0.2,0.6-0.6,0.6h-11c-0.3,0-0.6-0.3-0.6-0.6V820.4z"/>
		</g>
		<g>
			<path class="st1" d="M-1909.1,820.4c0-0.3,0.3-0.6,0.6-0.6h2.8c0.3,0,0.6,0.3,0.6,0.6v19.8c0,0.3-0.3,0.6-0.6,0.6h-2.8
				c-0.3,0-0.6-0.3-0.6-0.6V820.4z"/>
		</g>
		<g>
			<path class="st1" d="M-1895.6,837.9l1.1-1.9c0.2-0.4,0.7-0.4,1-0.2c0.1,0.1,2.6,1.9,4.5,1.9c1.6,0,2.7-1,2.7-2.3
				c0-1.5-1.3-2.6-3.8-3.6c-2.8-1.1-5.6-2.9-5.6-6.5c0-2.7,2-5.8,6.7-5.8c3.1,0,5.4,1.6,6,2c0.3,0.2,0.4,0.7,0.2,1l-1.1,1.7
				c-0.2,0.4-0.7,0.6-1,0.4c-0.2-0.1-2.5-1.6-4.2-1.6c-1.7,0-2.6,1.1-2.6,2.1c0,1.4,1.1,2.4,3.5,3.4c2.9,1.2,6.3,2.9,6.3,6.8
				c0,3.1-2.7,5.9-6.9,5.9c-3.8,0-6-1.8-6.6-2.3C-1895.7,838.5-1895.9,838.3-1895.6,837.9z"/>
		</g>
		<g>
			<path class="st1" d="M-2057.1,840l-9.2-20.2c-0.1-0.2-0.2-0.3-0.5-0.3h-0.3c-0.3,0-0.4,0.1-0.5,0.3l-9.3,20.2
				c-0.2,0.4,0.1,0.8,0.5,0.8h2.6c0.5,0,0.8-0.3,0.9-0.6l1.5-3.2l1.5-3.3l2.9-6.6h0.1l2.8,6.2c0.1,0.2,0,0.5-0.2,0.7l-3.3,2.5
				c-0.2,0.2-0.1,0.6,0.2,0.6h4.6c0.2,0,0.4,0.1,0.5,0.3l1.3,2.9c0.2,0.4,0.4,0.6,0.9,0.6h2.6
				C-2057.2,840.8-2056.9,840.4-2057.1,840z"/>
		</g>
		<g>
			<g>
				<path class="st1" d="M-2015,834.3h-3.2c-0.2,0-0.4,0.2-0.3,0.4l2.9,5.8c0.1,0.1,0.2,0.3,0.5,0.3h3.1c0.5,0,0.7-0.5,0.5-0.9
					l-2.7-5C-2014.3,834.5-2014.6,834.3-2015,834.3z"/>
			</g>
			<g>
				<path class="st1" d="M-2015.5,832.3c2.7-0.6,4.4-3.3,4.4-6.1c0-3.6-2.9-6.4-6.5-6.4h-8.6c-0.3,0-0.6,0.3-0.6,0.6v19.8
					c0,0.3,0.2,0.6,0.6,0.6h2.8c0.3,0,0.6-0.3,0.6-0.6v-7.6h3.3C-2019.5,832.6-2016.5,832.5-2015.5,832.3z M-2022.8,823.4h4.9
					c1.6,0,3,1.3,3,2.9c0,1.7-1.4,3.1-3,3.1h-4.9V823.4z"/>
			</g>
		</g>
		<g>
			<g>
				<path class="st1" d="M-1967.3,832.3c2.7-0.6,4.4-3.3,4.4-6.1c0-3.6-2.9-6.4-6.5-6.4h-8.6c-0.3,0-0.6,0.3-0.6,0.6v19.8
					c0,0.3,0.2,0.6,0.6,0.6h2.8c0.3,0,0.6-0.3,0.6-0.6v-7.6h3.3C-1971.3,832.6-1968.2,832.5-1967.3,832.3z M-1974.6,823.4h4.9
					c1.6,0,3,1.3,3,2.9c0,1.7-1.4,3.1-3,3.1h-4.9V823.4z"/>
			</g>
		</g>
	</g>
	<linearGradient id="SVGID_2_" gradientUnits="userSpaceOnUse" x1="-2053.741" y1="705.9673" x2="-1905.2988" y2="705.9673">
		<stop  offset="0" style="stop-color:#E168FD"/>
		<stop  offset="1" style="stop-color:#7B00FC"/>
	</linearGradient>
	<path class="st3" d="M-1979.5,788.1c-4,0-8-1-11.5-3.1l-51.1-29.5c-7.1-4.1-11.5-11.8-11.5-20v-59.1c0-8.2,4.4-15.9,11.5-20
		l51.1-29.5c7.1-4.1,16-4.1,23.1,0l51.1,29.5c7.1,4.1,11.5,11.8,11.5,20v59.1c0,8.2-4.4,15.9-11.5,20L-1968,785
		C-1971.5,787.1-1975.5,788.1-1979.5,788.1z M-1979.5,631.8c-2.6,0-5.2,0.7-7.5,2l-51.1,29.5c-4.6,2.7-7.5,7.7-7.5,13v59.1
		c0,5.4,2.9,10.4,7.5,13.1l51.1,29.5c4.6,2.7,10.4,2.7,15.1,0l51.1-29.5c4.6-2.7,7.5-7.7,7.5-13v-59.1c0-5.4-2.9-10.4-7.5-13
		l-51.1-29.5C-1974.3,632.5-1976.9,631.8-1979.5,631.8z M-1979.5,761.3c-2.2,0-4.3-0.6-6.2-1.7l-37.1-21.4
		c-3.8-2.2-6.2-6.3-6.2-10.8v-42.9c0-4.4,2.4-8.6,6.2-10.8l37.1-21.4c3.8-2.2,8.6-2.2,12.4,0l37.1,21.4c3.8,2.2,6.2,6.4,6.2,10.8
		v42.9c0,4.4-2.4,8.6-6.2,10.8l-37.1,21.4C-1975.2,760.7-1977.4,761.3-1979.5,761.3z M-1979.5,656.6c-1.1,0-2.2,0.3-3.2,0.9
		l-37.1,21.4c-2,1.1-3.2,3.3-3.2,5.6v42.9c0,2.3,1.2,4.4,3.2,5.6l37.1,21.4c2,1.1,4.5,1.1,6.4,0l37.1-21.4c2-1.1,3.2-3.3,3.2-5.6
		v-42.9c0-2.3-1.2-4.4-3.2-5.6l-37.1-21.4C-1977.3,656.9-1978.4,656.6-1979.5,656.6z M-1979.5,734.1c-1.1,0-2.2-0.3-3.2-0.9
		l-18.8-10.9c-2-1.1-3.2-3.3-3.2-5.5v-21.8c0-2.3,1.2-4.4,3.2-5.5l18.8-10.9c2-1.1,4.4-1.1,6.4,0l18.8,10.9c2,1.1,3.2,3.3,3.2,5.5
		v21.8c0,2.3-1.2,4.4-3.2,5.5l-18.8,10.9C-1977.3,733.8-1978.4,734.1-1979.5,734.1z M-1979.5,681.8c-0.4,0-0.8,0.1-1.2,0.3
		l-18.8,10.9c-0.7,0.4-1.2,1.2-1.2,2.1v21.8c0,0.8,0.5,1.6,1.2,2.1l18.8,10.9c0.7,0.4,1.6,0.4,2.4,0l18.8-10.9
		c0.7-0.4,1.2-1.2,1.2-2.1v-21.8c0-0.8-0.5-1.6-1.2-2.1l-18.8-10.9C-1978.7,681.9-1979.1,681.8-1979.5,681.8z"/>
</g>
</svg>
