<svg xmlns="http://www.w3.org/2000/svg" width="219" height="23" viewBox="0 0 219 23">
  <path fill="#FFF" fill-rule="evenodd" d="M152.268164,154.325195 C152.541603,154.989261 152.341409,155.453124 151.667578,155.716797 C151.003512,155.970704 150.544532,155.770511 150.290625,155.116211 L147.229101,147.367188 C147.102147,147.005858 146.833595,146.825195 146.423437,146.825195 C146.013279,146.825195 145.739844,147.005858 145.603125,147.367188 L141.911718,156.698242 L150.774023,156.698242 C152.395125,156.698242 153.474216,157.357415 154.011328,158.675781 L156.355078,164.564453 C156.618751,165.218753 156.418558,165.677733 155.754492,165.941406 C155.090426,166.195314 154.626563,165.99512 154.36289,165.34082 L152.033789,159.466797 C151.858007,158.998045 151.525979,158.763672 151.037695,158.763672 L141.076757,158.763672 L138.469336,165.34082 C138.215428,165.99512 137.756448,166.195314 137.092382,165.941406 C136.418551,165.677733 136.218358,165.218753 136.491796,164.564453 L143.625586,146.620117 C144.143166,145.360345 145.075774,144.730469 146.423437,144.730469 C147.7711,144.730469 148.698825,145.360345 149.20664,146.620117 L152.268164,154.325195 Z M168.511914,154.486328 L171.968945,154.486328 C173.668172,154.486328 174.957222,155.052729 175.836133,156.185547 L182.105664,164.31543 C182.515822,164.862307 182.457229,165.355467 181.929883,165.794922 C181.402536,166.244143 180.909377,166.180667 180.45039,165.604492 L173.975781,157.357422 C173.926953,157.298828 173.878125,157.245117 173.829297,157.196289 C173.702343,157.069335 173.565625,156.961915 173.41914,156.874023 C173.008982,156.620116 172.535354,156.493164 171.998242,156.493164 L168.511914,156.493164 L168.511914,164.916016 C168.511914,165.638675 168.165238,166 167.471875,166 C166.768746,166 166.417187,165.638675 166.417187,164.916016 L166.417187,146.078125 C166.417187,145.355465 166.768746,144.994141 167.471875,144.994141 C168.165238,144.994141 168.511914,145.355465 168.511914,146.078125 L168.511914,154.486328 Z M176.348828,153.973633 C175.919138,154.598636 175.430862,154.67676 174.883984,154.208008 C174.337106,153.768552 174.263865,153.280276 174.664258,152.743164 L180.391797,145.448242 C180.831252,144.823239 181.324411,144.745115 181.871289,145.213867 C182.408401,145.653323 182.47676,146.141599 182.076367,146.678711 L176.348828,153.973633 Z M208.149219,151.366211 C208.149219,153.934583 207.040831,155.794916 204.824023,156.947266 C204.687304,157.025391 204.516407,157.064453 204.311328,157.064453 C203.608199,157.064453 203.25664,156.72266 203.25664,156.039062 C203.25664,155.609373 203.447068,155.301759 203.827929,155.116211 C205.263484,154.344723 205.98125,153.08497 205.98125,151.336914 C205.98125,148.475572 204.443179,147.044922 201.366992,147.044922 L195.331836,147.044922 L195.331836,155.49707 L199.330859,155.49707 C200.756648,155.49707 201.923628,156.068354 202.831836,157.210938 L208.471484,164.286133 C208.930471,164.862308 208.881643,165.355467 208.325,165.765625 C207.787888,166.263674 207.289846,166.219729 206.830859,165.633789 L201.132617,158.5 C200.898241,158.20703 200.673634,157.992188 200.458789,157.855469 C200.136522,157.640624 199.760549,157.533203 199.330859,157.533203 L195.331836,157.533203 L195.331836,164.916016 C195.331836,165.638675 194.98516,166 194.291797,166 C193.588668,166 193.237109,165.638675 193.237109,164.916016 L193.237109,146.854492 C193.237109,145.614252 193.866986,144.994141 195.126758,144.994141 L201.454883,144.994141 C203.359189,144.994141 204.926556,145.54101 206.157031,146.634766 C207.485163,147.796881 208.149219,149.374013 208.149219,151.366211 Z M228.025781,146.766602 C226.248429,146.766602 224.744537,147.367181 223.514062,148.568359 C222.312885,149.750006 221.629298,151.25878 221.463281,153.094727 C221.30703,154.696297 221.30703,156.297844 221.463281,157.899414 C221.795314,161.405291 223.533578,163.465817 226.678125,164.081055 C227.244534,164.188477 227.527734,164.520505 227.527734,165.077148 C227.527734,165.731449 227.195706,166.058594 226.531641,166.058594 C226.453515,166.058594 226.360743,166.053711 226.25332,166.043945 C226.165429,166.03418 226.067774,166.019531 225.960351,166 C224.124405,165.589842 222.605865,164.666999 221.404687,163.231445 C220.174213,161.756829 219.485743,159.989268 219.339258,157.928711 C219.212304,156.307609 219.212304,154.686532 219.339258,153.06543 C219.505274,150.702137 220.39882,148.7295 222.019922,147.147461 C223.670321,145.536125 225.672254,144.730469 228.025781,144.730469 C230.389074,144.730469 232.39589,145.536125 234.046289,147.147461 C235.667391,148.7295 236.560937,150.702137 236.726953,153.06543 C236.853907,154.686532 236.853907,156.307609 236.726953,157.928711 C236.580468,159.989268 235.891998,161.756829 234.661523,163.231445 C233.460345,164.666999 231.941806,165.589842 230.105859,166 C229.998437,166.019531 229.900782,166.03418 229.812891,166.043945 L229.53457,166.058594 C228.870504,166.058594 228.538476,165.731449 228.538476,165.077148 C228.538476,164.520505 228.821677,164.188477 229.388086,164.081055 C232.532633,163.465817 234.270897,161.405291 234.60293,157.899414 C234.749415,156.297844 234.749415,154.696297 234.60293,153.094727 C234.436913,151.25878 233.748443,149.750006 232.5375,148.568359 C231.316791,147.367181 229.812899,146.766602 228.025781,146.766602 Z M256.076172,155.892578 C257.716805,155.892578 258.942379,155.482426 259.75293,154.662109 C260.485355,153.919918 260.851562,152.860358 260.851562,151.483398 C260.851562,148.524399 259.313492,147.044922 256.237305,147.044922 L250.46582,147.044922 L250.46582,164.916016 C250.46582,165.638675 250.119144,166 249.425781,166 C248.722653,166 248.371094,165.638675 248.371094,164.916016 L248.371094,146.854492 C248.371094,145.614252 249.00097,144.994141 250.260742,144.994141 L256.325195,144.994141 C258.20997,144.994141 259.777337,145.560541 261.027344,146.693359 C262.34571,147.894537 263.004883,149.481435 263.004883,151.454102 C263.004883,153.475596 262.355475,155.077143 261.056641,156.258789 C259.796869,157.391607 258.136729,157.958008 256.076172,157.958008 L252.355469,157.958008 C251.623043,157.958008 251.256836,157.596683 251.256836,156.874023 C251.256836,156.219723 251.623043,155.892578 252.355469,155.892578 L256.076172,155.892578 Z M281.870703,146.766602 C280.093351,146.766602 278.589459,147.367181 277.358984,148.568359 C276.157807,149.750006 275.47422,151.25878 275.308203,153.094727 C275.151952,154.696297 275.151952,156.297844 275.308203,157.899414 C275.640236,161.405291 277.3785,163.465817 280.523047,164.081055 C281.089456,164.188477 281.372656,164.520505 281.372656,165.077148 C281.372656,165.731449 281.040628,166.058594 280.376563,166.058594 C280.298437,166.058594 280.205665,166.053711 280.098242,166.043945 C280.010351,166.03418 279.912696,166.019531 279.805274,166 C277.969327,165.589842 276.450787,164.666999 275.249609,163.231445 C274.019135,161.756829 273.330665,159.989268 273.18418,157.928711 C273.057226,156.307609 273.057226,154.686532 273.18418,153.06543 C273.350196,150.702137 274.243742,148.7295 275.864844,147.147461 C277.515243,145.536125 279.517176,144.730469 281.870703,144.730469 C284.233996,144.730469 286.240812,145.536125 287.891211,147.147461 C289.512313,148.7295 290.405859,150.702137 290.571875,153.06543 C290.698829,154.686532 290.698829,156.307609 290.571875,157.928711 C290.42539,159.989268 289.73692,161.756829 288.506445,163.231445 C287.305268,164.666999 285.786728,165.589842 283.950781,166 C283.843359,166.019531 283.745704,166.03418 283.657813,166.043945 L283.379492,166.058594 C282.715426,166.058594 282.383399,165.731449 282.383399,165.077148 C282.383399,164.520505 282.666599,164.188477 283.233008,164.081055 C286.377555,163.465817 288.115819,161.405291 288.447852,157.899414 C288.594337,156.297844 288.594337,154.696297 288.447852,153.094727 C288.281835,151.25878 287.593366,149.750006 286.382422,148.568359 C285.161713,147.367181 283.657822,146.766602 281.870703,146.766602 Z M302.216016,146.078125 C302.216016,145.355465 302.567575,144.994141 303.270703,144.994141 C303.964066,144.994141 304.310742,145.355465 304.310742,146.078125 L304.310742,163.905273 L314.46211,163.905273 C315.175004,163.905273 315.531446,164.25195 315.531446,164.945312 C315.531446,165.648441 315.175004,166 314.46211,166 L304.105664,166 C302.845892,166 302.216016,165.379889 302.216016,164.139648 L302.216016,146.078125 Z M325.373828,146.078125 C325.373828,145.355465 325.725387,144.994141 326.428516,144.994141 C327.121879,144.994141 327.468555,145.355465 327.468555,146.078125 L327.468555,164.916016 C327.468555,165.638675 327.121879,166 326.428516,166 C325.725387,166 325.373828,165.638675 325.373828,164.916016 L325.373828,146.078125 Z M344.869532,156.097656 C340.943731,155.20898 338.98086,153.348647 338.98086,150.516602 C338.98086,148.749015 339.625385,147.337896 340.914454,146.283203 C342.183991,145.248042 343.868545,144.730469 345.968164,144.730469 C348.487708,144.730469 350.450579,145.301752 351.856836,146.444336 C352.12051,146.668946 352.252344,146.957029 352.252344,147.308594 C352.252344,147.992191 351.89102,148.333984 351.16836,148.333984 C351.051172,148.333984 350.92422,148.299805 350.7875,148.231445 L350.450586,148.026367 C349.796286,147.63574 349.13223,147.337892 348.458399,147.132812 C347.677145,146.888671 346.871489,146.766602 346.041407,146.766602 C344.303117,146.766602 343.01895,147.137692 342.188868,147.879883 C341.495505,148.504886 341.148829,149.364252 341.148829,150.458008 C341.148829,151.42481 341.45156,152.16699 342.057032,152.68457 C342.682035,153.211917 343.809953,153.670896 345.440821,154.061523 C345.977933,154.208009 346.246485,154.569333 346.246485,155.145508 C346.246485,155.97559 345.787505,156.29297 344.869532,156.097656 Z M348.282618,154.691406 C352.208418,155.580083 354.171289,157.508774 354.171289,160.477539 C354.171289,162.23536 353.468171,163.646479 352.061914,164.710938 C350.69472,165.746099 348.917394,166.263672 346.729883,166.263672 C345.186907,166.263672 343.707429,166.034182 342.291407,165.575195 C340.992572,165.155271 339.962309,164.618167 339.200586,163.963867 C338.936913,163.768554 338.805079,163.475588 338.805079,163.084961 C338.805079,162.411129 339.166403,162.074219 339.889063,162.074219 C340.084376,162.074219 340.323632,162.171874 340.606836,162.367188 C341.378325,162.933597 342.232808,163.373045 343.170313,163.685547 C344.264068,164.046877 345.431049,164.227539 346.671289,164.227539 C348.419345,164.227539 349.771871,163.846683 350.728907,163.084961 C351.57852,162.411129 352.003321,161.541998 352.003321,160.477539 C352.003321,159.500972 351.695707,158.734378 351.080469,158.177734 C350.435935,157.591794 349.312899,157.1084 347.711329,156.727539 C347.174216,156.581054 346.905664,156.219729 346.905664,155.643555 C346.905664,154.813472 347.364644,154.496093 348.282618,154.691406 Z" transform="translate(-136 -144)"/>
</svg>
