 <svg width="287px" height="287px" viewBox="0 0 287 287" version="1.1" xmlns="http://www.w3.org/2000/svg" xmlns:xlink="http://www.w3.org/1999/xlink">
    <!-- Generator: sketchtool 51.2 (57519) - http://www.bohemiancoding.com/sketch -->
    <title>69183D57-ADAF-49BE-9BDE-B8769D55D4AD</title>
    <desc>Created with sketchtool.</desc>
    <defs>
        <circle id="path-1" cx="143.5" cy="143.5" r="143.5"></circle>
        <path d="M143.5,287 C222.752862,287 287,222.752862 287,143.5 C287,64.2471384 222.752862,0 143.5,0 C64.2471384,0 0,64.2471384 0,143.5 C0,222.752862 64.2471384,287 143.5,287 Z" id="path-3"></path>
        <mask id="mask-4" maskContentUnits="userSpaceOnUse" maskUnits="objectBoundingBox" x="0" y="0" width="287" height="287" fill="white">
            <use xlink:href="#path-3"></use>
        </mask>
        <path d="M143.5,287 C222.752862,287 287,222.752862 287,143.5 C287,64.2471384 222.752862,0 143.5,0 C64.2471384,0 0,64.2471384 0,143.5 C0,222.752862 64.2471384,287 143.5,287 Z" id="path-5"></path>
        <mask id="mask-6" maskContentUnits="userSpaceOnUse" maskUnits="objectBoundingBox" x="0" y="0" width="287" height="287" fill="white">
            <use xlink:href="#path-5"></use>
        </mask>
        <path d="M143.5,287 C222.752862,287 287,222.752862 287,143.5 C287,64.2471384 222.752862,0 143.5,0 C64.2471384,0 0,64.2471384 0,143.5 C0,222.752862 64.2471384,287 143.5,287 Z" id="path-7"></path>
        <mask id="mask-8" maskContentUnits="userSpaceOnUse" maskUnits="objectBoundingBox" x="0" y="0" width="287" height="287" fill="white">
            <use xlink:href="#path-7"></use>
        </mask>
        <path d="M143.5,287 C222.752862,287 287,222.752862 287,143.5 C287,64.2471384 222.752862,0 143.5,0 C64.2471384,0 0,64.2471384 0,143.5 C0,222.752862 64.2471384,287 143.5,287 Z" id="path-9"></path>
        <mask id="mask-10" maskContentUnits="userSpaceOnUse" maskUnits="objectBoundingBox" x="0" y="0" width="287" height="287" fill="white">
            <use xlink:href="#path-9"></use>
        </mask>
        <path d="M143.5,287 C222.752862,287 287,222.752862 287,143.5 C287,64.2471384 222.752862,0 143.5,0 C64.2471384,0 0,64.2471384 0,143.5 C0,222.752862 64.2471384,287 143.5,287 Z" id="path-11"></path>
        <mask id="mask-12" maskContentUnits="userSpaceOnUse" maskUnits="objectBoundingBox" x="0" y="0" width="287" height="287" fill="white">
            <use xlink:href="#path-11"></use>
        </mask>
        <path d="M143.5,287 C222.752862,287 287,222.752862 287,143.5 C287,64.2471384 222.752862,0 143.5,0 C64.2471384,0 0,64.2471384 0,143.5 C0,222.752862 64.2471384,287 143.5,287 Z" id="path-13"></path>
        <mask id="mask-14" maskContentUnits="userSpaceOnUse" maskUnits="objectBoundingBox" x="0" y="0" width="287" height="287" fill="white">
            <use xlink:href="#path-13"></use>
        </mask>
        <path d="M245.912,145.832 C245.704,145.592 245.688,145.48 245.88,145.288 L246.68,144.504 C246.792,144.408 246.936,144.376 247.064,144.488 C247.128,144.552 248.056,145.384 249.128,145.384 C250.216,145.384 250.984,144.504 250.984,143.496 C250.984,142.504 250.312,141.704 249.048,141.704 L246.584,141.704 C246.264,141.704 246.088,141.4 246.088,141.144 L246.088,136.424 C246.088,136.264 246.216,136.12 246.392,136.12 L251.448,136.12 C251.624,136.12 251.752,136.264 251.752,136.424 L251.752,137.512 C251.752,137.672 251.624,137.816 251.448,137.816 L247.896,137.816 L247.896,139.944 L249.272,139.944 C251.544,139.944 252.936,141.4 252.936,143.496 C252.936,145.496 251.272,147.16 249.064,147.16 C247.352,147.16 246.312,146.312 245.912,145.832 Z M258.368727,147.16 C255.808727,147.16 254.336727,145.064 254.336727,141.56 C254.336727,138.056 255.808727,135.96 258.368727,135.96 C260.928727,135.96 262.400727,138.056 262.400727,141.56 C262.400727,145.064 260.928727,147.16 258.368727,147.16 Z M258.368727,145.272 C259.600727,145.272 260.304727,143.944 260.304727,141.56 C260.304727,139.192 259.600727,137.848 258.368727,137.848 C257.136727,137.848 256.432727,139.192 256.432727,141.56 C256.432727,143.944 257.136727,145.272 258.368727,145.272 Z M265.801455,139.96 C264.601455,139.96 263.641455,139 263.641455,137.8 C263.641455,136.6 264.601455,135.64 265.801455,135.64 C266.985455,135.64 267.961455,136.6 267.961455,137.8 C267.961455,139 266.985455,139.96 265.801455,139.96 Z M264.953455,146.568 L270.441455,135.96 C270.489455,135.864 270.585455,135.8 270.713455,135.8 L271.513455,135.8 C271.753455,135.8 271.897455,136.024 271.785455,136.232 L266.265455,146.84 C266.233455,146.904 266.121455,147 265.993455,147 L265.225455,147 C264.985455,147 264.841455,146.776 264.953455,146.568 Z M265.801455,138.584 C266.217455,138.584 266.569455,138.232 266.569455,137.8 C266.569455,137.384 266.217455,137.032 265.801455,137.032 C265.369455,137.032 265.017455,137.384 265.017455,137.8 C265.017455,138.232 265.369455,138.584 265.801455,138.584 Z M268.905455,145 C268.905455,143.8 269.881455,142.84 271.065455,142.84 C272.265455,142.84 273.241455,143.8 273.241455,145 C273.241455,146.2 272.265455,147.16 271.065455,147.16 C269.881455,147.16 268.905455,146.2 268.905455,145 Z M270.281455,145 C270.281455,145.432 270.633455,145.784 271.065455,145.784 C271.481455,145.784 271.849455,145.432 271.849455,145 C271.849455,144.584 271.481455,144.232 271.065455,144.232 C270.633455,144.232 270.281455,144.584 270.281455,145 Z" id="path-15"></path>
        <filter x="-25.5%" y="-43.4%" width="150.9%" height="221.5%" filterUnits="objectBoundingBox" id="filter-16">
            <feOffset dx="0" dy="2" in="SourceAlpha" result="shadowOffsetOuter1"></feOffset>
            <feGaussianBlur stdDeviation="2" in="shadowOffsetOuter1" result="shadowBlurOuter1"></feGaussianBlur>
            <feColorMatrix values="0 0 0 0 0   0 0 0 0 0   0 0 0 0 0  0 0 0 0.5 0" type="matrix" in="shadowBlurOuter1"></feColorMatrix>
        </filter>
        <path d="M81.256,45.696 L81.256,38.032 L79.848,38.336 C79.704,38.368 79.544,38.272 79.528,38.128 L79.432,37.344 C79.416,37.216 79.448,37.12 79.512,37.056 L81.816,35.12 L82.936,35.12 C83.096,35.12 83.224,35.264 83.224,35.424 L83.224,45.696 C83.224,45.856 83.096,46 82.936,46 L81.56,46 C81.384,46 81.256,45.856 81.256,45.696 Z M85.5367273,44.832 C85.3287273,44.592 85.3127273,44.48 85.5047273,44.288 L86.3047273,43.504 C86.4167273,43.408 86.5607273,43.376 86.6887273,43.488 C86.7527273,43.552 87.6807273,44.384 88.7527273,44.384 C89.8407273,44.384 90.6087273,43.504 90.6087273,42.496 C90.6087273,41.504 89.9367273,40.704 88.6727273,40.704 L86.2087273,40.704 C85.8887273,40.704 85.7127273,40.4 85.7127273,40.144 L85.7127273,35.424 C85.7127273,35.264 85.8407273,35.12 86.0167273,35.12 L91.0727273,35.12 C91.2487273,35.12 91.3767273,35.264 91.3767273,35.424 L91.3767273,36.512 C91.3767273,36.672 91.2487273,36.816 91.0727273,36.816 L87.5207273,36.816 L87.5207273,38.944 L88.8967273,38.944 C91.1687273,38.944 92.5607273,40.4 92.5607273,42.496 C92.5607273,44.496 90.8967273,46.16 88.6887273,46.16 C86.9767273,46.16 85.9367273,45.312 85.5367273,44.832 Z M95.4974545,38.96 C94.2974545,38.96 93.3374545,38 93.3374545,36.8 C93.3374545,35.6 94.2974545,34.64 95.4974545,34.64 C96.6814545,34.64 97.6574545,35.6 97.6574545,36.8 C97.6574545,38 96.6814545,38.96 95.4974545,38.96 Z M94.6494545,45.568 L100.137455,34.96 C100.185455,34.864 100.281455,34.8 100.409455,34.8 L101.209455,34.8 C101.449455,34.8 101.593455,35.024 101.481455,35.232 L95.9614545,45.84 C95.9294545,45.904 95.8174545,46 95.6894545,46 L94.9214545,46 C94.6814545,46 94.5374545,45.776 94.6494545,45.568 Z M95.4974545,37.584 C95.9134545,37.584 96.2654545,37.232 96.2654545,36.8 C96.2654545,36.384 95.9134545,36.032 95.4974545,36.032 C95.0654545,36.032 94.7134545,36.384 94.7134545,36.8 C94.7134545,37.232 95.0654545,37.584 95.4974545,37.584 Z M98.6014545,44 C98.6014545,42.8 99.5774545,41.84 100.761455,41.84 C101.961455,41.84 102.937455,42.8 102.937455,44 C102.937455,45.2 101.961455,46.16 100.761455,46.16 C99.5774545,46.16 98.6014545,45.2 98.6014545,44 Z M99.9774545,44 C99.9774545,44.432 100.329455,44.784 100.761455,44.784 C101.177455,44.784 101.545455,44.432 101.545455,44 C101.545455,43.584 101.177455,43.232 100.761455,43.232 C100.329455,43.232 99.9774545,43.584 99.9774545,44 Z" id="path-17"></path>
        <filter x="-29.8%" y="-43.4%" width="159.6%" height="221.5%" filterUnits="objectBoundingBox" id="filter-18">
            <feOffset dx="0" dy="2" in="SourceAlpha" result="shadowOffsetOuter1"></feOffset>
            <feGaussianBlur stdDeviation="2" in="shadowOffsetOuter1" result="shadowBlurOuter1"></feGaussianBlur>
            <feColorMatrix values="0 0 0 0 0   0 0 0 0 0   0 0 0 0 0  0 0 0 0.5 0" type="matrix" in="shadowBlurOuter1"></feColorMatrix>
        </filter>
        <path d="M13.256,127.696 L13.256,120.032 L11.848,120.336 C11.704,120.368 11.544,120.272 11.528,120.128 L11.432,119.344 C11.416,119.216 11.448,119.12 11.512,119.056 L13.816,117.12 L14.936,117.12 C15.096,117.12 15.224,117.264 15.224,117.424 L15.224,127.696 C15.224,127.856 15.096,128 14.936,128 L13.56,128 C13.384,128 13.256,127.856 13.256,127.696 Z M17.1207273,127.696 L17.1207273,127.328 C18.1767273,126.048 20.1927273,123.424 21.2647273,122 C21.7607273,121.392 22.0807273,120.768 22.0807273,120.224 C22.0807273,119.504 21.5367273,118.768 20.3847273,118.768 C19.6167273,118.768 18.9607273,119.312 18.5927273,119.712 C18.4647273,119.84 18.2887273,119.84 18.1607273,119.712 L17.3927273,118.944 C17.2967273,118.848 17.2647273,118.656 17.3767273,118.528 C17.3767273,118.528 18.6247273,116.96 20.5287273,116.96 C22.8167273,116.96 24.0967273,118.416 24.0967273,120.144 C24.0967273,121.184 23.6487273,121.84 23.0247273,122.736 C22.3367273,123.712 21.1207273,125.216 20.2727273,126.288 L23.7287273,126.288 C23.8887273,126.288 24.0327273,126.432 24.0327273,126.592 L24.0327273,127.696 C24.0327273,127.856 23.8887273,128 23.7287273,128 L17.4247273,128 C17.2487273,128 17.1207273,127.856 17.1207273,127.696 Z M25.3854545,126.848 C25.3854545,126.128 25.9774545,125.52 26.6974545,125.52 C27.4174545,125.52 28.0254545,126.128 28.0254545,126.848 C28.0254545,127.568 27.4174545,128.16 26.6974545,128.16 C25.9774545,128.16 25.3854545,127.568 25.3854545,126.848 Z M29.4101818,126.832 C29.2021818,126.592 29.1861818,126.48 29.3781818,126.288 L30.1781818,125.504 C30.2901818,125.408 30.4341818,125.376 30.5621818,125.488 C30.6261818,125.552 31.5541818,126.384 32.6261818,126.384 C33.7141818,126.384 34.4821818,125.504 34.4821818,124.496 C34.4821818,123.504 33.8101818,122.704 32.5461818,122.704 L30.0821818,122.704 C29.7621818,122.704 29.5861818,122.4 29.5861818,122.144 L29.5861818,117.424 C29.5861818,117.264 29.7141818,117.12 29.8901818,117.12 L34.9461818,117.12 C35.1221818,117.12 35.2501818,117.264 35.2501818,117.424 L35.2501818,118.512 C35.2501818,118.672 35.1221818,118.816 34.9461818,118.816 L31.3941818,118.816 L31.3941818,120.944 L32.7701818,120.944 C35.0421818,120.944 36.4341818,122.4 36.4341818,124.496 C36.4341818,126.496 34.7701818,128.16 32.5621818,128.16 C30.8501818,128.16 29.8101818,127.312 29.4101818,126.832 Z M39.3709091,120.96 C38.1709091,120.96 37.2109091,120 37.2109091,118.8 C37.2109091,117.6 38.1709091,116.64 39.3709091,116.64 C40.5549091,116.64 41.5309091,117.6 41.5309091,118.8 C41.5309091,120 40.5549091,120.96 39.3709091,120.96 Z M38.5229091,127.568 L44.0109091,116.96 C44.0589091,116.864 44.1549091,116.8 44.2829091,116.8 L45.0829091,116.8 C45.3229091,116.8 45.4669091,117.024 45.3549091,117.232 L39.8349091,127.84 C39.8029091,127.904 39.6909091,128 39.5629091,128 L38.7949091,128 C38.5549091,128 38.4109091,127.776 38.5229091,127.568 Z M39.3709091,119.584 C39.7869091,119.584 40.1389091,119.232 40.1389091,118.8 C40.1389091,118.384 39.7869091,118.032 39.3709091,118.032 C38.9389091,118.032 38.5869091,118.384 38.5869091,118.8 C38.5869091,119.232 38.9389091,119.584 39.3709091,119.584 Z M42.4749091,126 C42.4749091,124.8 43.4509091,123.84 44.6349091,123.84 C45.8349091,123.84 46.8109091,124.8 46.8109091,126 C46.8109091,127.2 45.8349091,128.16 44.6349091,128.16 C43.4509091,128.16 42.4749091,127.2 42.4749091,126 Z M43.8509091,126 C43.8509091,126.432 44.2029091,126.784 44.6349091,126.784 C45.0509091,126.784 45.4189091,126.432 45.4189091,126 C45.4189091,125.584 45.0509091,125.232 44.6349091,125.232 C44.2029091,125.232 43.8509091,125.584 43.8509091,126 Z" id="path-19"></path>
        <filter x="-19.8%" y="-43.4%" width="139.6%" height="221.5%" filterUnits="objectBoundingBox" id="filter-20">
            <feOffset dx="0" dy="2" in="SourceAlpha" result="shadowOffsetOuter1"></feOffset>
            <feGaussianBlur stdDeviation="2" in="shadowOffsetOuter1" result="shadowBlurOuter1"></feGaussianBlur>
            <feColorMatrix values="0 0 0 0 0   0 0 0 0 0   0 0 0 0 0  0 0 0 0.5 0" type="matrix" in="shadowBlurOuter1"></feColorMatrix>
        </filter>
        <path d="M23.256,197.696 L23.256,190.032 L21.848,190.336 C21.704,190.368 21.544,190.272 21.528,190.128 L21.432,189.344 C21.416,189.216 21.448,189.12 21.512,189.056 L23.816,187.12 L24.936,187.12 C25.096,187.12 25.224,187.264 25.224,187.424 L25.224,197.696 C25.224,197.856 25.096,198 24.936,198 L23.56,198 C23.384,198 23.256,197.856 23.256,197.696 Z M31.5847273,198.16 C29.0247273,198.16 27.5527273,196.064 27.5527273,192.56 C27.5527273,189.056 29.0247273,186.96 31.5847273,186.96 C34.1447273,186.96 35.6167273,189.056 35.6167273,192.56 C35.6167273,196.064 34.1447273,198.16 31.5847273,198.16 Z M31.5847273,196.272 C32.8167273,196.272 33.5207273,194.944 33.5207273,192.56 C33.5207273,190.192 32.8167273,188.848 31.5847273,188.848 C30.3527273,188.848 29.6487273,190.192 29.6487273,192.56 C29.6487273,194.944 30.3527273,196.272 31.5847273,196.272 Z M39.0174545,190.96 C37.8174545,190.96 36.8574545,190 36.8574545,188.8 C36.8574545,187.6 37.8174545,186.64 39.0174545,186.64 C40.2014545,186.64 41.1774545,187.6 41.1774545,188.8 C41.1774545,190 40.2014545,190.96 39.0174545,190.96 Z M38.1694545,197.568 L43.6574545,186.96 C43.7054545,186.864 43.8014545,186.8 43.9294545,186.8 L44.7294545,186.8 C44.9694545,186.8 45.1134545,187.024 45.0014545,187.232 L39.4814545,197.84 C39.4494545,197.904 39.3374545,198 39.2094545,198 L38.4414545,198 C38.2014545,198 38.0574545,197.776 38.1694545,197.568 Z M39.0174545,189.584 C39.4334545,189.584 39.7854545,189.232 39.7854545,188.8 C39.7854545,188.384 39.4334545,188.032 39.0174545,188.032 C38.5854545,188.032 38.2334545,188.384 38.2334545,188.8 C38.2334545,189.232 38.5854545,189.584 39.0174545,189.584 Z M42.1214545,196 C42.1214545,194.8 43.0974545,193.84 44.2814545,193.84 C45.4814545,193.84 46.4574545,194.8 46.4574545,196 C46.4574545,197.2 45.4814545,198.16 44.2814545,198.16 C43.0974545,198.16 42.1214545,197.2 42.1214545,196 Z M43.4974545,196 C43.4974545,196.432 43.8494545,196.784 44.2814545,196.784 C44.6974545,196.784 45.0654545,196.432 45.0654545,196 C45.0654545,195.584 44.6974545,195.232 44.2814545,195.232 C43.8494545,195.232 43.4974545,195.584 43.4974545,196 Z" id="path-21"></path>
        <filter x="-28.0%" y="-43.4%" width="155.9%" height="221.5%" filterUnits="objectBoundingBox" id="filter-22">
            <feOffset dx="0" dy="2" in="SourceAlpha" result="shadowOffsetOuter1"></feOffset>
            <feGaussianBlur stdDeviation="2" in="shadowOffsetOuter1" result="shadowBlurOuter1"></feGaussianBlur>
            <feColorMatrix values="0 0 0 0 0   0 0 0 0 0   0 0 0 0 0  0 0 0 0.5 0" type="matrix" in="shadowBlurOuter1"></feColorMatrix>
        </filter>
        <path d="M81.256,252.696 L81.256,245.032 L79.848,245.336 C79.704,245.368 79.544,245.272 79.528,245.128 L79.432,244.344 C79.416,244.216 79.448,244.12 79.512,244.056 L81.816,242.12 L82.936,242.12 C83.096,242.12 83.224,242.264 83.224,242.424 L83.224,252.696 C83.224,252.856 83.096,253 82.936,253 L81.56,253 C81.384,253 81.256,252.856 81.256,252.696 Z M89.5847273,253.16 C87.0247273,253.16 85.5527273,251.064 85.5527273,247.56 C85.5527273,244.056 87.0247273,241.96 89.5847273,241.96 C92.1447273,241.96 93.6167273,244.056 93.6167273,247.56 C93.6167273,251.064 92.1447273,253.16 89.5847273,253.16 Z M89.5847273,251.272 C90.8167273,251.272 91.5207273,249.944 91.5207273,247.56 C91.5207273,245.192 90.8167273,243.848 89.5847273,243.848 C88.3527273,243.848 87.6487273,245.192 87.6487273,247.56 C87.6487273,249.944 88.3527273,251.272 89.5847273,251.272 Z M97.0174545,245.96 C95.8174545,245.96 94.8574545,245 94.8574545,243.8 C94.8574545,242.6 95.8174545,241.64 97.0174545,241.64 C98.2014545,241.64 99.1774545,242.6 99.1774545,243.8 C99.1774545,245 98.2014545,245.96 97.0174545,245.96 Z M96.1694545,252.568 L101.657455,241.96 C101.705455,241.864 101.801455,241.8 101.929455,241.8 L102.729455,241.8 C102.969455,241.8 103.113455,242.024 103.001455,242.232 L97.4814545,252.84 C97.4494545,252.904 97.3374545,253 97.2094545,253 L96.4414545,253 C96.2014545,253 96.0574545,252.776 96.1694545,252.568 Z M97.0174545,244.584 C97.4334545,244.584 97.7854545,244.232 97.7854545,243.8 C97.7854545,243.384 97.4334545,243.032 97.0174545,243.032 C96.5854545,243.032 96.2334545,243.384 96.2334545,243.8 C96.2334545,244.232 96.5854545,244.584 97.0174545,244.584 Z M100.121455,251 C100.121455,249.8 101.097455,248.84 102.281455,248.84 C103.481455,248.84 104.457455,249.8 104.457455,251 C104.457455,252.2 103.481455,253.16 102.281455,253.16 C101.097455,253.16 100.121455,252.2 100.121455,251 Z M101.497455,251 C101.497455,251.432 101.849455,251.784 102.281455,251.784 C102.697455,251.784 103.065455,251.432 103.065455,251 C103.065455,250.584 102.697455,250.232 102.281455,250.232 C101.849455,250.232 101.497455,250.584 101.497455,251 Z" id="path-23"></path>
        <filter x="-28.0%" y="-43.4%" width="155.9%" height="221.5%" filterUnits="objectBoundingBox" id="filter-24">
            <feOffset dx="0" dy="2" in="SourceAlpha" result="shadowOffsetOuter1"></feOffset>
            <feGaussianBlur stdDeviation="2" in="shadowOffsetOuter1" result="shadowBlurOuter1"></feGaussianBlur>
            <feColorMatrix values="0 0 0 0 0   0 0 0 0 0   0 0 0 0 0  0 0 0 0.5 0" type="matrix" in="shadowBlurOuter1"></feColorMatrix>
        </filter>
        <path d="M126.248,270.848 L126.248,270.664 C126.776,270.024 127.784,268.712 128.32,268 C128.568,267.696 128.728,267.384 128.728,267.112 C128.728,266.752 128.456,266.384 127.88,266.384 C127.496,266.384 127.168,266.656 126.984,266.856 C126.92,266.92 126.832,266.92 126.768,266.856 L126.384,266.472 C126.336,266.424 126.32,266.328 126.376,266.264 C126.376,266.264 127,265.48 127.952,265.48 C129.096,265.48 129.736,266.208 129.736,267.072 C129.736,267.592 129.512,267.92 129.2,268.368 C128.856,268.856 128.248,269.608 127.824,270.144 L129.552,270.144 C129.632,270.144 129.704,270.216 129.704,270.296 L129.704,270.848 C129.704,270.928 129.632,271 129.552,271 L126.4,271 C126.312,271 126.248,270.928 126.248,270.848 Z M130.380364,270.424 C130.380364,270.064 130.676364,269.76 131.036364,269.76 C131.396364,269.76 131.700364,270.064 131.700364,270.424 C131.700364,270.784 131.396364,271.08 131.036364,271.08 C130.676364,271.08 130.380364,270.784 130.380364,270.424 Z M132.392727,270.416 C132.288727,270.296 132.280727,270.24 132.376727,270.144 L132.776727,269.752 C132.832727,269.704 132.904727,269.688 132.968727,269.744 C133.000727,269.776 133.464727,270.192 134.000727,270.192 C134.544727,270.192 134.928727,269.752 134.928727,269.248 C134.928727,268.752 134.592727,268.352 133.960727,268.352 L132.728727,268.352 C132.568727,268.352 132.480727,268.2 132.480727,268.072 L132.480727,265.712 C132.480727,265.632 132.544727,265.56 132.632727,265.56 L135.160727,265.56 C135.248727,265.56 135.312727,265.632 135.312727,265.712 L135.312727,266.256 C135.312727,266.336 135.248727,266.408 135.160727,266.408 L133.384727,266.408 L133.384727,267.472 L134.072727,267.472 C135.208727,267.472 135.904727,268.2 135.904727,269.248 C135.904727,270.248 135.072727,271.08 133.968727,271.08 C133.112727,271.08 132.592727,270.656 132.392727,270.416 Z M137.373091,267.48 C136.773091,267.48 136.293091,267 136.293091,266.4 C136.293091,265.8 136.773091,265.32 137.373091,265.32 C137.965091,265.32 138.453091,265.8 138.453091,266.4 C138.453091,267 137.965091,267.48 137.373091,267.48 Z M136.949091,270.784 L139.693091,265.48 C139.717091,265.432 139.765091,265.4 139.829091,265.4 L140.229091,265.4 C140.349091,265.4 140.421091,265.512 140.365091,265.616 L137.605091,270.92 C137.589091,270.952 137.533091,271 137.469091,271 L137.085091,271 C136.965091,271 136.893091,270.888 136.949091,270.784 Z M137.373091,266.792 C137.581091,266.792 137.757091,266.616 137.757091,266.4 C137.757091,266.192 137.581091,266.016 137.373091,266.016 C137.157091,266.016 136.981091,266.192 136.981091,266.4 C136.981091,266.616 137.157091,266.792 137.373091,266.792 Z M138.925091,270 C138.925091,269.4 139.413091,268.92 140.005091,268.92 C140.605091,268.92 141.093091,269.4 141.093091,270 C141.093091,270.6 140.605091,271.08 140.005091,271.08 C139.413091,271.08 138.925091,270.6 138.925091,270 Z M139.613091,270 C139.613091,270.216 139.789091,270.392 140.005091,270.392 C140.213091,270.392 140.397091,270.216 140.397091,270 C140.397091,269.792 140.213091,269.616 140.005091,269.616 C139.789091,269.616 139.613091,269.792 139.613091,270 Z" id="path-25"></path>
        <filter x="-47.2%" y="-86.8%" width="194.3%" height="343.1%" filterUnits="objectBoundingBox" id="filter-26">
            <feOffset dx="0" dy="2" in="SourceAlpha" result="shadowOffsetOuter1"></feOffset>
            <feGaussianBlur stdDeviation="2" in="shadowOffsetOuter1" result="shadowBlurOuter1"></feGaussianBlur>
            <feColorMatrix values="0 0 0 0 0   0 0 0 0 0   0 0 0 0 0  0 0 0 0.5 0" type="matrix" in="shadowBlurOuter1"></feColorMatrix>
        </filter>
    </defs>
    <g id="bundle" stroke="none" stroke-width="1" fill="none" fill-rule="evenodd">
        <g id="akropolis-mobile" transform="translate(-43.000000, -7549.000000)">
            <g id="Proceeds" transform="translate(43.000000, 7549.000000)">
                <g id="Proceeds-Chart">
                    <g id="Chart">
                        <mask id="mask-2" fill="white">
                            <use xlink:href="#path-1"></use>
                        </mask>
                        <use id="Oval-2" fill="#D8D8D8" fill-rule="nonzero" xlink:href="#path-1"></use>
                        <g id="#161032:2.5%" stroke-dasharray="22.55,1435" fill-rule="nonzero" mask="url(#mask-2)" transform="translate(143.500000, 143.500000) rotate(-351.000000) translate(-143.500000, -143.500000) " stroke="#2D3D66" stroke-opacity="0.2" stroke-width="287">
                            <use mask="url(#mask-4)" xlink:href="#path-3"></use>
                        </g>
                        <g id="#161032:10%" stroke-dasharray="90.2,1435" fill-rule="nonzero" mask="url(#mask-2)" transform="translate(143.500000, 143.500000) rotate(-315.000000) translate(-143.500000, -143.500000) " stroke="#2D3D66" stroke-opacity="0.5" stroke-width="287">
                            <use mask="url(#mask-6)" xlink:href="#path-5"></use>
                        </g>
                        <g id="#161032:10%" stroke-dasharray="90.2,1435" fill-rule="nonzero" mask="url(#mask-2)" transform="translate(143.500000, 143.500000) rotate(-279.000000) translate(-143.500000, -143.500000) " stroke="#161032" stroke-opacity="0.6" stroke-width="287">
                            <use mask="url(#mask-8)" xlink:href="#path-7"></use>
                        </g>
                        <g id="#161032:12.5%" stroke-dasharray="112.75,1435" fill-rule="nonzero" mask="url(#mask-2)" transform="translate(143.500000, 143.500000) rotate(-234.000000) translate(-143.500000, -143.500000) " stroke="#2D3D66" stroke-opacity="0.8" stroke-width="287">
                            <use mask="url(#mask-10)" xlink:href="#path-9"></use>
                        </g>
                        <g id="#161032:15%" stroke-dasharray="135.3,1435" fill-rule="nonzero" mask="url(#mask-2)" transform="translate(143.500000, 143.500000) rotate(-180.000000) translate(-143.500000, -143.500000) " stroke="#2D3D66" stroke-width="287">
                            <use mask="url(#mask-12)" xlink:href="#path-11"></use>
                        </g>
                        <g id="#161032:50%" stroke-dasharray="451,1435" fill-rule="nonzero" mask="url(#mask-2)" stroke="#5C73E3" stroke-width="287">
                            <use mask="url(#mask-14)" xlink:href="#path-13"></use>
                        </g>
                        <g id="50%" mask="url(#mask-2)">
                            <use fill="black" fill-opacity="1" filter="url(#filter-16)" xlink:href="#path-15"></use>
                            <use fill="#FFFFFF" fill-rule="evenodd" xlink:href="#path-15"></use>
                        </g>
                        <g id="15%" mask="url(#mask-2)">
                            <use fill="black" fill-opacity="1" filter="url(#filter-18)" xlink:href="#path-17"></use>
                            <use fill="#FFFFFF" fill-rule="evenodd" xlink:href="#path-17"></use>
                        </g>
                        <g id="12.5%" mask="url(#mask-2)">
                            <use fill="black" fill-opacity="1" filter="url(#filter-20)" xlink:href="#path-19"></use>
                            <use fill="#FFFFFF" fill-rule="evenodd" xlink:href="#path-19"></use>
                        </g>
                        <g id="10%" mask="url(#mask-2)">
                            <use fill="black" fill-opacity="1" filter="url(#filter-22)" xlink:href="#path-21"></use>
                            <use fill="#FFFFFF" fill-rule="evenodd" xlink:href="#path-21"></use>
                        </g>
                        <g id="10%" mask="url(#mask-2)">
                            <use fill="black" fill-opacity="1" filter="url(#filter-24)" xlink:href="#path-23"></use>
                            <use fill="#FFFFFF" fill-rule="evenodd" xlink:href="#path-23"></use>
                        </g>
                        <g id="2.5%" mask="url(#mask-2)">
                            <use fill="black" fill-opacity="1" filter="url(#filter-26)" xlink:href="#path-25"></use>
                            <use fill="#FFFFFF" fill-rule="evenodd" xlink:href="#path-25"></use>
                        </g>
                    </g>
                    <circle id="Oval-6" fill="#FFFFFF" fill-rule="nonzero" cx="144" cy="144" r="90"></circle>
                </g>
            </g>
        </g>
    </g>
</svg>