<svg width="287px" height="287px" viewBox="0 0 287 287" version="1.1" xmlns="http://www.w3.org/2000/svg" xmlns:xlink="http://www.w3.org/1999/xlink">
    <!-- Generator: sketchtool 51.2 (57519) - http://www.bohemiancoding.com/sketch -->
    <title>094C1108-4A46-43FC-ABF1-B7EF9673F19F</title>
    <desc>Created with sketchtool.</desc>
    <defs>
        <circle id="path-1" cx="143.5" cy="143.5" r="143.5"></circle>
        <path d="M143.5,287 C222.752862,287 287,222.752862 287,143.5 C287,64.2471384 222.752862,0 143.5,0 C64.2471384,0 0,64.2471384 0,143.5 C0,222.752862 64.2471384,287 143.5,287 Z" id="path-3"></path>
        <mask id="mask-4" maskContentUnits="userSpaceOnUse" maskUnits="objectBoundingBox" x="0" y="0" width="287" height="287" fill="white">
            <use xlink:href="#path-3"></use>
        </mask>
        <path d="M143.5,287 C222.752862,287 287,222.752862 287,143.5 C287,64.2471384 222.752862,0 143.5,0 C64.2471384,0 0,64.2471384 0,143.5 C0,222.752862 64.2471384,287 143.5,287 Z" id="path-5"></path>
        <mask id="mask-6" maskContentUnits="userSpaceOnUse" maskUnits="objectBoundingBox" x="0" y="0" width="287" height="287" fill="white">
            <use xlink:href="#path-5"></use>
        </mask>
        <path d="M143.5,287 C222.752862,287 287,222.752862 287,143.5 C287,64.2471384 222.752862,0 143.5,0 C64.2471384,0 0,64.2471384 0,143.5 C0,222.752862 64.2471384,287 143.5,287 Z" id="path-7"></path>
        <mask id="mask-8" maskContentUnits="userSpaceOnUse" maskUnits="objectBoundingBox" x="0" y="0" width="287" height="287" fill="white">
            <use xlink:href="#path-7"></use>
        </mask>
        <path d="M143.5,287 C222.752862,287 287,222.752862 287,143.5 C287,64.2471384 222.752862,0 143.5,0 C64.2471384,0 0,64.2471384 0,143.5 C0,222.752862 64.2471384,287 143.5,287 Z" id="path-9"></path>
        <mask id="mask-10" maskContentUnits="userSpaceOnUse" maskUnits="objectBoundingBox" x="0" y="0" width="287" height="287" fill="white">
            <use xlink:href="#path-9"></use>
        </mask>
        <path d="M143.5,287 C222.752862,287 287,222.752862 287,143.5 C287,64.2471384 222.752862,0 143.5,0 C64.2471384,0 0,64.2471384 0,143.5 C0,222.752862 64.2471384,287 143.5,287 Z" id="path-11"></path>
        <mask id="mask-12" maskContentUnits="userSpaceOnUse" maskUnits="objectBoundingBox" x="0" y="0" width="287" height="287" fill="white">
            <use xlink:href="#path-11"></use>
        </mask>
        <path d="M244.56,144.68 C244.384,144.68 244.256,144.536 244.256,144.376 L244.256,143.048 L250.016,136.04 C250.064,135.992 250.144,135.944 250.256,135.944 L251.12,135.944 C251.28,135.944 251.424,136.072 251.424,136.248 L251.424,143.064 L252.704,143.064 C252.88,143.064 253.008,143.192 253.008,143.352 L253.008,144.344 C253.008,144.504 252.88,144.648 252.704,144.648 L251.424,144.648 L251.44,146.696 C251.44,146.856 251.296,147 251.136,147 L249.808,147 C249.648,147 249.504,146.856 249.504,146.696 L249.504,144.68 L244.56,144.68 Z M246.368,143.016 L249.568,143.016 L249.568,139.176 L246.368,143.016 Z M258.472727,147.16 C255.912727,147.16 254.440727,145.064 254.440727,141.56 C254.440727,138.056 255.912727,135.96 258.472727,135.96 C261.032727,135.96 262.504727,138.056 262.504727,141.56 C262.504727,145.064 261.032727,147.16 258.472727,147.16 Z M258.472727,145.272 C259.704727,145.272 260.408727,143.944 260.408727,141.56 C260.408727,139.192 259.704727,137.848 258.472727,137.848 C257.240727,137.848 256.536727,139.192 256.536727,141.56 C256.536727,143.944 257.240727,145.272 258.472727,145.272 Z M265.905455,139.96 C264.705455,139.96 263.745455,139 263.745455,137.8 C263.745455,136.6 264.705455,135.64 265.905455,135.64 C267.089455,135.64 268.065455,136.6 268.065455,137.8 C268.065455,139 267.089455,139.96 265.905455,139.96 Z M265.057455,146.568 L270.545455,135.96 C270.593455,135.864 270.689455,135.8 270.817455,135.8 L271.617455,135.8 C271.857455,135.8 272.001455,136.024 271.889455,136.232 L266.369455,146.84 C266.337455,146.904 266.225455,147 266.097455,147 L265.329455,147 C265.089455,147 264.945455,146.776 265.057455,146.568 Z M265.905455,138.584 C266.321455,138.584 266.673455,138.232 266.673455,137.8 C266.673455,137.384 266.321455,137.032 265.905455,137.032 C265.473455,137.032 265.121455,137.384 265.121455,137.8 C265.121455,138.232 265.473455,138.584 265.905455,138.584 Z M269.009455,145 C269.009455,143.8 269.985455,142.84 271.169455,142.84 C272.369455,142.84 273.345455,143.8 273.345455,145 C273.345455,146.2 272.369455,147.16 271.169455,147.16 C269.985455,147.16 269.009455,146.2 269.009455,145 Z M270.385455,145 C270.385455,145.432 270.737455,145.784 271.169455,145.784 C271.585455,145.784 271.953455,145.432 271.953455,145 C271.953455,144.584 271.585455,144.232 271.169455,144.232 C270.737455,144.232 270.385455,144.584 270.385455,145 Z" id="path-13"></path>
        <filter x="-24.1%" y="-43.4%" width="148.1%" height="221.5%" filterUnits="objectBoundingBox" id="filter-14">
            <feOffset dx="0" dy="2" in="SourceAlpha" result="shadowOffsetOuter1"></feOffset>
            <feGaussianBlur stdDeviation="2" in="shadowOffsetOuter1" result="shadowBlurOuter1"></feGaussianBlur>
            <feColorMatrix values="0 0 0 0 0   0 0 0 0 0   0 0 0 0 0  0 0 0 0.5 0" type="matrix" in="shadowBlurOuter1"></feColorMatrix>
        </filter>
        <path d="M129.496,32.696 L129.496,32.328 C130.552,31.048 132.568,28.424 133.64,27 C134.136,26.392 134.456,25.768 134.456,25.224 C134.456,24.504 133.912,23.768 132.76,23.768 C131.992,23.768 131.336,24.312 130.968,24.712 C130.84,24.84 130.664,24.84 130.536,24.712 L129.768,23.944 C129.672,23.848 129.64,23.656 129.752,23.528 C129.752,23.528 131,21.96 132.904,21.96 C135.192,21.96 136.472,23.416 136.472,25.144 C136.472,26.184 136.024,26.84 135.4,27.736 C134.712,28.712 133.496,30.216 132.648,31.288 L136.104,31.288 C136.264,31.288 136.408,31.432 136.408,31.592 L136.408,32.696 C136.408,32.856 136.264,33 136.104,33 L129.8,33 C129.624,33 129.496,32.856 129.496,32.696 Z M142.208727,33.16 C139.648727,33.16 138.176727,31.064 138.176727,27.56 C138.176727,24.056 139.648727,21.96 142.208727,21.96 C144.768727,21.96 146.240727,24.056 146.240727,27.56 C146.240727,31.064 144.768727,33.16 142.208727,33.16 Z M142.208727,31.272 C143.440727,31.272 144.144727,29.944 144.144727,27.56 C144.144727,25.192 143.440727,23.848 142.208727,23.848 C140.976727,23.848 140.272727,25.192 140.272727,27.56 C140.272727,29.944 140.976727,31.272 142.208727,31.272 Z M149.641455,25.96 C148.441455,25.96 147.481455,25 147.481455,23.8 C147.481455,22.6 148.441455,21.64 149.641455,21.64 C150.825455,21.64 151.801455,22.6 151.801455,23.8 C151.801455,25 150.825455,25.96 149.641455,25.96 Z M148.793455,32.568 L154.281455,21.96 C154.329455,21.864 154.425455,21.8 154.553455,21.8 L155.353455,21.8 C155.593455,21.8 155.737455,22.024 155.625455,22.232 L150.105455,32.84 C150.073455,32.904 149.961455,33 149.833455,33 L149.065455,33 C148.825455,33 148.681455,32.776 148.793455,32.568 Z M149.641455,24.584 C150.057455,24.584 150.409455,24.232 150.409455,23.8 C150.409455,23.384 150.057455,23.032 149.641455,23.032 C149.209455,23.032 148.857455,23.384 148.857455,23.8 C148.857455,24.232 149.209455,24.584 149.641455,24.584 Z M152.745455,31 C152.745455,29.8 153.721455,28.84 154.905455,28.84 C156.105455,28.84 157.081455,29.8 157.081455,31 C157.081455,32.2 156.105455,33.16 154.905455,33.16 C153.721455,33.16 152.745455,32.2 152.745455,31 Z M154.121455,31 C154.121455,31.432 154.473455,31.784 154.905455,31.784 C155.321455,31.784 155.689455,31.432 155.689455,31 C155.689455,30.584 155.321455,30.232 154.905455,30.232 C154.473455,30.232 154.121455,30.584 154.121455,31 Z" id="path-15"></path>
        <filter x="-25.4%" y="-43.4%" width="150.8%" height="221.5%" filterUnits="objectBoundingBox" id="filter-16">
            <feOffset dx="0" dy="2" in="SourceAlpha" result="shadowOffsetOuter1"></feOffset>
            <feGaussianBlur stdDeviation="2" in="shadowOffsetOuter1" result="shadowBlurOuter1"></feGaussianBlur>
            <feColorMatrix values="0 0 0 0 0   0 0 0 0 0   0 0 0 0 0  0 0 0 0.5 0" type="matrix" in="shadowBlurOuter1"></feColorMatrix>
        </filter>
        <path d="M18.496,117.696 L18.496,117.328 C19.552,116.048 21.568,113.424 22.64,112 C23.136,111.392 23.456,110.768 23.456,110.224 C23.456,109.504 22.912,108.768 21.76,108.768 C20.992,108.768 20.336,109.312 19.968,109.712 C19.84,109.84 19.664,109.84 19.536,109.712 L18.768,108.944 C18.672,108.848 18.64,108.656 18.752,108.528 C18.752,108.528 20,106.96 21.904,106.96 C24.192,106.96 25.472,108.416 25.472,110.144 C25.472,111.184 25.024,111.84 24.4,112.736 C23.712,113.712 22.496,115.216 21.648,116.288 L25.104,116.288 C25.264,116.288 25.408,116.432 25.408,116.592 L25.408,117.696 C25.408,117.856 25.264,118 25.104,118 L18.8,118 C18.624,118 18.496,117.856 18.496,117.696 Z M31.2087273,118.16 C28.6487273,118.16 27.1767273,116.064 27.1767273,112.56 C27.1767273,109.056 28.6487273,106.96 31.2087273,106.96 C33.7687273,106.96 35.2407273,109.056 35.2407273,112.56 C35.2407273,116.064 33.7687273,118.16 31.2087273,118.16 Z M31.2087273,116.272 C32.4407273,116.272 33.1447273,114.944 33.1447273,112.56 C33.1447273,110.192 32.4407273,108.848 31.2087273,108.848 C29.9767273,108.848 29.2727273,110.192 29.2727273,112.56 C29.2727273,114.944 29.9767273,116.272 31.2087273,116.272 Z M38.6414545,110.96 C37.4414545,110.96 36.4814545,110 36.4814545,108.8 C36.4814545,107.6 37.4414545,106.64 38.6414545,106.64 C39.8254545,106.64 40.8014545,107.6 40.8014545,108.8 C40.8014545,110 39.8254545,110.96 38.6414545,110.96 Z M37.7934545,117.568 L43.2814545,106.96 C43.3294545,106.864 43.4254545,106.8 43.5534545,106.8 L44.3534545,106.8 C44.5934545,106.8 44.7374545,107.024 44.6254545,107.232 L39.1054545,117.84 C39.0734545,117.904 38.9614545,118 38.8334545,118 L38.0654545,118 C37.8254545,118 37.6814545,117.776 37.7934545,117.568 Z M38.6414545,109.584 C39.0574545,109.584 39.4094545,109.232 39.4094545,108.8 C39.4094545,108.384 39.0574545,108.032 38.6414545,108.032 C38.2094545,108.032 37.8574545,108.384 37.8574545,108.8 C37.8574545,109.232 38.2094545,109.584 38.6414545,109.584 Z M41.7454545,116 C41.7454545,114.8 42.7214545,113.84 43.9054545,113.84 C45.1054545,113.84 46.0814545,114.8 46.0814545,116 C46.0814545,117.2 45.1054545,118.16 43.9054545,118.16 C42.7214545,118.16 41.7454545,117.2 41.7454545,116 Z M43.1214545,116 C43.1214545,116.432 43.4734545,116.784 43.9054545,116.784 C44.3214545,116.784 44.6894545,116.432 44.6894545,116 C44.6894545,115.584 44.3214545,115.232 43.9054545,115.232 C43.4734545,115.232 43.1214545,115.584 43.1214545,116 Z" id="path-17"></path>
        <filter x="-25.4%" y="-43.4%" width="150.8%" height="221.5%" filterUnits="objectBoundingBox" id="filter-18">
            <feOffset dx="0" dy="2" in="SourceAlpha" result="shadowOffsetOuter1"></feOffset>
            <feGaussianBlur stdDeviation="2" in="shadowOffsetOuter1" result="shadowBlurOuter1"></feGaussianBlur>
            <feColorMatrix values="0 0 0 0 0   0 0 0 0 0   0 0 0 0 0  0 0 0 0.5 0" type="matrix" in="shadowBlurOuter1"></feColorMatrix>
        </filter>
        <path d="M40.256,221.696 L40.256,214.032 L38.848,214.336 C38.704,214.368 38.544,214.272 38.528,214.128 L38.432,213.344 C38.416,213.216 38.448,213.12 38.512,213.056 L40.816,211.12 L41.936,211.12 C42.096,211.12 42.224,211.264 42.224,211.424 L42.224,221.696 C42.224,221.856 42.096,222 41.936,222 L40.56,222 C40.384,222 40.256,221.856 40.256,221.696 Z M48.5847273,222.16 C46.0247273,222.16 44.5527273,220.064 44.5527273,216.56 C44.5527273,213.056 46.0247273,210.96 48.5847273,210.96 C51.1447273,210.96 52.6167273,213.056 52.6167273,216.56 C52.6167273,220.064 51.1447273,222.16 48.5847273,222.16 Z M48.5847273,220.272 C49.8167273,220.272 50.5207273,218.944 50.5207273,216.56 C50.5207273,214.192 49.8167273,212.848 48.5847273,212.848 C47.3527273,212.848 46.6487273,214.192 46.6487273,216.56 C46.6487273,218.944 47.3527273,220.272 48.5847273,220.272 Z M56.0174545,214.96 C54.8174545,214.96 53.8574545,214 53.8574545,212.8 C53.8574545,211.6 54.8174545,210.64 56.0174545,210.64 C57.2014545,210.64 58.1774545,211.6 58.1774545,212.8 C58.1774545,214 57.2014545,214.96 56.0174545,214.96 Z M55.1694545,221.568 L60.6574545,210.96 C60.7054545,210.864 60.8014545,210.8 60.9294545,210.8 L61.7294545,210.8 C61.9694545,210.8 62.1134545,211.024 62.0014545,211.232 L56.4814545,221.84 C56.4494545,221.904 56.3374545,222 56.2094545,222 L55.4414545,222 C55.2014545,222 55.0574545,221.776 55.1694545,221.568 Z M56.0174545,213.584 C56.4334545,213.584 56.7854545,213.232 56.7854545,212.8 C56.7854545,212.384 56.4334545,212.032 56.0174545,212.032 C55.5854545,212.032 55.2334545,212.384 55.2334545,212.8 C55.2334545,213.232 55.5854545,213.584 56.0174545,213.584 Z M59.1214545,220 C59.1214545,218.8 60.0974545,217.84 61.2814545,217.84 C62.4814545,217.84 63.4574545,218.8 63.4574545,220 C63.4574545,221.2 62.4814545,222.16 61.2814545,222.16 C60.0974545,222.16 59.1214545,221.2 59.1214545,220 Z M60.4974545,220 C60.4974545,220.432 60.8494545,220.784 61.2814545,220.784 C61.6974545,220.784 62.0654545,220.432 62.0654545,220 C62.0654545,219.584 61.6974545,219.232 61.2814545,219.232 C60.8494545,219.232 60.4974545,219.584 60.4974545,220 Z" id="path-19"></path>
        <filter x="-28.0%" y="-43.4%" width="155.9%" height="221.5%" filterUnits="objectBoundingBox" id="filter-20">
            <feOffset dx="0" dy="2" in="SourceAlpha" result="shadowOffsetOuter1"></feOffset>
            <feGaussianBlur stdDeviation="2" in="shadowOffsetOuter1" result="shadowBlurOuter1"></feGaussianBlur>
            <feColorMatrix values="0 0 0 0 0   0 0 0 0 0   0 0 0 0 0  0 0 0 0.5 0" type="matrix" in="shadowBlurOuter1"></feColorMatrix>
        </filter>
        <path d="M98.256,259.696 L98.256,252.032 L96.848,252.336 C96.704,252.368 96.544,252.272 96.528,252.128 L96.432,251.344 C96.416,251.216 96.448,251.12 96.512,251.056 L98.816,249.12 L99.936,249.12 C100.096,249.12 100.224,249.264 100.224,249.424 L100.224,259.696 C100.224,259.856 100.096,260 99.936,260 L98.56,260 C98.384,260 98.256,259.856 98.256,259.696 Z M106.584727,260.16 C104.024727,260.16 102.552727,258.064 102.552727,254.56 C102.552727,251.056 104.024727,248.96 106.584727,248.96 C109.144727,248.96 110.616727,251.056 110.616727,254.56 C110.616727,258.064 109.144727,260.16 106.584727,260.16 Z M106.584727,258.272 C107.816727,258.272 108.520727,256.944 108.520727,254.56 C108.520727,252.192 107.816727,250.848 106.584727,250.848 C105.352727,250.848 104.648727,252.192 104.648727,254.56 C104.648727,256.944 105.352727,258.272 106.584727,258.272 Z M114.017455,252.96 C112.817455,252.96 111.857455,252 111.857455,250.8 C111.857455,249.6 112.817455,248.64 114.017455,248.64 C115.201455,248.64 116.177455,249.6 116.177455,250.8 C116.177455,252 115.201455,252.96 114.017455,252.96 Z M113.169455,259.568 L118.657455,248.96 C118.705455,248.864 118.801455,248.8 118.929455,248.8 L119.729455,248.8 C119.969455,248.8 120.113455,249.024 120.001455,249.232 L114.481455,259.84 C114.449455,259.904 114.337455,260 114.209455,260 L113.441455,260 C113.201455,260 113.057455,259.776 113.169455,259.568 Z M114.017455,251.584 C114.433455,251.584 114.785455,251.232 114.785455,250.8 C114.785455,250.384 114.433455,250.032 114.017455,250.032 C113.585455,250.032 113.233455,250.384 113.233455,250.8 C113.233455,251.232 113.585455,251.584 114.017455,251.584 Z M117.121455,258 C117.121455,256.8 118.097455,255.84 119.281455,255.84 C120.481455,255.84 121.457455,256.8 121.457455,258 C121.457455,259.2 120.481455,260.16 119.281455,260.16 C118.097455,260.16 117.121455,259.2 117.121455,258 Z M118.497455,258 C118.497455,258.432 118.849455,258.784 119.281455,258.784 C119.697455,258.784 120.065455,258.432 120.065455,258 C120.065455,257.584 119.697455,257.232 119.281455,257.232 C118.849455,257.232 118.497455,257.584 118.497455,258 Z" id="path-21"></path>
        <filter x="-28.0%" y="-43.4%" width="155.9%" height="221.5%" filterUnits="objectBoundingBox" id="filter-22">
            <feOffset dx="0" dy="2" in="SourceAlpha" result="shadowOffsetOuter1"></feOffset>
            <feGaussianBlur stdDeviation="2" in="shadowOffsetOuter1" result="shadowBlurOuter1"></feGaussianBlur>
            <feColorMatrix values="0 0 0 0 0   0 0 0 0 0   0 0 0 0 0  0 0 0 0.5 0" type="matrix" in="shadowBlurOuter1"></feColorMatrix>
        </filter>
    </defs>
    <g id="bundle" stroke="none" stroke-width="1" fill="none" fill-rule="evenodd">
        <g id="akropolis-mobile" transform="translate(-44.000000, -6925.000000)">
            <g id="Token" transform="translate(43.000000, 6925.000000)">
                <g id="Token-Chart" transform="translate(1.000000, 0.000000)">
                    <g id="Chart">
                        <mask id="mask-2" fill="white">
                            <use xlink:href="#path-1"></use>
                        </mask>
                        <use id="Oval-2" fill="#D8D8D8" fill-rule="nonzero" xlink:href="#path-1"></use>
                        <g id="#161032:10%" stroke-dasharray="90.2,1435" fill-rule="nonzero" mask="url(#mask-2)" transform="translate(143.500000, 143.500000) rotate(-324.000000) translate(-143.500000, -143.500000) " stroke="#161032" stroke-opacity="0.3" stroke-width="287">
                            <use mask="url(#mask-4)" xlink:href="#path-3"></use>
                        </g>
                        <g id="#161032:10%" stroke-dasharray="90.2,1435" fill-rule="nonzero" mask="url(#mask-2)" transform="translate(143.500000, 143.500000) rotate(-288.000000) translate(-143.500000, -143.500000) " stroke="#2D3D66" stroke-opacity="0.5" stroke-width="287">
                            <use mask="url(#mask-6)" xlink:href="#path-5"></use>
                        </g>
                        <g id="#161032:20%" stroke-dasharray="180.4,1435" fill-rule="nonzero" mask="url(#mask-2)" transform="translate(143.500000, 143.500000) rotate(-216.000000) translate(-143.500000, -143.500000) " stroke="#2D3D66" stroke-opacity="0.7" stroke-width="287">
                            <use mask="url(#mask-8)" xlink:href="#path-7"></use>
                        </g>
                        <g id="#161032:20%" stroke-dasharray="180.4,1435" fill-rule="nonzero" mask="url(#mask-2)" transform="translate(143.500000, 143.500000) rotate(-144.000000) translate(-143.500000, -143.500000) " stroke="#212F54" stroke-width="287">
                            <use mask="url(#mask-10)" xlink:href="#path-9"></use>
                        </g>
                        <g id="#161032:40%" stroke-dasharray="360.8,1435" fill-rule="nonzero" mask="url(#mask-2)" stroke="#5C73E3" stroke-width="287">
                            <use mask="url(#mask-12)" xlink:href="#path-11"></use>
                        </g>
                        <g id="40%" mask="url(#mask-2)">
                            <use fill="black" fill-opacity="1" filter="url(#filter-14)" xlink:href="#path-13"></use>
                            <use fill="#FFFFFF" fill-rule="evenodd" xlink:href="#path-13"></use>
                        </g>
                        <g id="20%" mask="url(#mask-2)">
                            <use fill="black" fill-opacity="1" filter="url(#filter-16)" xlink:href="#path-15"></use>
                            <use fill="#FFFFFF" fill-rule="evenodd" xlink:href="#path-15"></use>
                        </g>
                        <g id="20%" mask="url(#mask-2)">
                            <use fill="black" fill-opacity="1" filter="url(#filter-18)" xlink:href="#path-17"></use>
                            <use fill="#FFFFFF" fill-rule="evenodd" xlink:href="#path-17"></use>
                        </g>
                        <g id="10%" mask="url(#mask-2)">
                            <use fill="black" fill-opacity="1" filter="url(#filter-20)" xlink:href="#path-19"></use>
                            <use fill="#FFFFFF" fill-rule="evenodd" xlink:href="#path-19"></use>
                        </g>
                        <g id="10%" mask="url(#mask-2)">
                            <use fill="black" fill-opacity="1" filter="url(#filter-22)" xlink:href="#path-21"></use>
                            <use fill="#FFFFFF" fill-rule="evenodd" xlink:href="#path-21"></use>
                        </g>
                    </g>
                    <circle id="Oval-5" fill="#FFFFFF" fill-rule="nonzero" cx="144" cy="144" r="90"></circle>
                </g>
            </g>
        </g>
    </g>
</svg>